
<svg version="1.0" xmlns="http://www.w3.org/2000/svg"
 width="800.000000pt" height="800.000000pt" viewBox="0 0 800.000000 800.000000"
 preserveAspectRatio="xMidYMid meet">

<g transform="translate(0.000000,800.000000) scale(0.100000,-0.100000)"
fill="url(#skyGradient)" stroke="none">
<path d="M3822 6004 c-476 -52 -942 -277 -1286 -620 -371 -371 -584 -842 -627
-1385 -11 -134 -10 -180 4 -335 46 -504 237 -931 582 -1303 176 -189 471 -397
698 -493 454 -190 921 -232 1382 -122 264 62 475 155 705 309 490 329 818 835
924 1425 77 430 13 900 -178 1303 -250 529 -714 941 -1261 1121 -318 104 -618
136 -943 100z m508 -128 c320 -60 600 -180 844 -360 505 -374 806 -969 806
-1596 0 -449 -156 -893 -437 -1240 -83 -102 -260 -273 -360 -347 -750 -556
-1770 -519 -2479 90 -310 266 -529 624 -628 1023 -45 183 -51 238 -51 479 0
194 4 248 22 345 128 669 561 1211 1179 1475 170 73 328 114 569 149 72 10
453 -2 535 -18z"/>
<path d="M3380 5140 c0 -5 -12 -10 -26 -10 -41 0 -154 -23 -154 -31 0 -4 -18
-10 -40 -14 -22 -4 -40 -11 -40 -16 0 -5 -11 -11 -25 -15 -14 -3 -25 -9 -25
-14 0 -4 -18 -12 -40 -19 -22 -6 -40 -16 -40 -21 0 -6 -7 -10 -15 -10 -9 0
-18 -7 -21 -15 -3 -8 -14 -17 -25 -20 -10 -4 -34 -22 -54 -41 -19 -19 -42 -34
-50 -34 -8 0 -17 -11 -21 -24 -3 -13 -16 -29 -28 -36 -12 -6 -30 -25 -40 -41
-9 -16 -21 -29 -27 -29 -5 0 -9 -7 -9 -15 0 -8 -4 -15 -10 -15 -5 0 -10 -7
-10 -15 0 -7 -6 -18 -14 -22 -7 -4 -21 -23 -30 -40 -9 -18 -20 -33 -24 -33 -4
0 -16 -21 -26 -48 -11 -26 -23 -49 -28 -53 -4 -3 -18 -39 -30 -80 -12 -40 -25
-76 -29 -79 -9 -6 -39 -121 -39 -148 0 -11 -4 -22 -10 -24 -5 -1 -15 -68 -21
-148 -9 -113 -9 -176 1 -290 7 -80 16 -147 20 -150 4 -3 11 -27 16 -55 8 -43
13 -51 34 -54 14 -1 28 -8 32 -15 6 -8 8 -8 8 0 0 8 47 13 146 16 86 2 148 9
152 15 4 6 28 13 55 17 26 4 47 11 47 15 0 4 27 13 60 20 33 8 60 17 60 21 0
5 14 11 30 15 17 4 30 13 30 21 0 8 5 14 10 14 6 0 10 9 10 20 0 11 -4 20 -8
20 -18 0 -34 81 -39 202 -5 107 -3 134 13 177 10 28 21 51 25 51 3 0 14 20 23
45 10 24 26 47 36 50 10 3 21 12 24 20 3 8 12 15 21 15 8 0 15 4 15 9 0 11 55
31 86 31 13 0 24 5 24 10 0 6 20 10 45 10 25 0 45 -4 45 -9 0 -5 15 -12 34
-15 31 -6 44 -14 101 -64 24 -20 55 -82 55 -109 0 -10 9 -24 20 -31 11 -7 20
-23 20 -36 0 -25 -19 -88 -30 -96 -3 -3 -14 -22 -23 -42 -9 -20 -21 -38 -25
-40 -4 -2 -16 -21 -27 -43 -11 -22 -27 -47 -35 -56 -8 -8 -31 -35 -50 -58 -46
-56 -87 -104 -97 -113 -4 -4 -18 -16 -30 -27 -13 -12 -28 -21 -33 -21 -6 0
-13 -6 -16 -14 -3 -8 -16 -17 -30 -20 -13 -4 -24 -10 -24 -15 0 -5 -16 -15
-35 -21 -19 -6 -35 -15 -35 -20 0 -4 -11 -11 -25 -14 -14 -4 -25 -10 -25 -15
0 -5 -18 -12 -40 -16 -22 -4 -40 -10 -40 -15 0 -4 -29 -14 -65 -21 -36 -7 -65
-16 -65 -20 0 -4 -34 -10 -75 -14 -41 -4 -75 -11 -75 -15 0 -4 -47 -11 -105
-15 -75 -5 -105 -11 -105 -20 0 -20 29 -85 38 -85 5 0 16 -16 25 -35 9 -19 21
-35 27 -35 5 0 10 -7 10 -15 0 -8 13 -29 29 -47 16 -18 45 -51 65 -73 20 -22
36 -43 36 -47 0 -5 6 -8 14 -8 8 0 22 -13 31 -28 9 -15 31 -34 48 -42 17 -7
40 -23 52 -35 11 -12 30 -25 43 -29 12 -4 22 -11 22 -15 0 -4 18 -14 40 -21
22 -7 40 -17 40 -21 0 -5 16 -11 35 -15 19 -3 35 -10 35 -14 0 -5 18 -11 40
-15 22 -4 40 -10 40 -14 0 -14 153 -31 270 -31 120 0 280 18 280 31 0 4 19 10
42 14 23 4 48 14 56 21 7 8 22 14 33 14 10 0 19 4 19 9 0 5 16 15 35 21 19 6
35 16 35 21 0 5 6 9 13 9 14 0 50 25 75 53 9 9 22 17 29 17 7 0 17 9 23 20 6
11 17 20 25 20 7 0 15 5 17 12 5 13 48 -25 48 -41 0 -5 18 -28 40 -51 22 -23
40 -46 40 -51 0 -5 7 -9 15 -9 8 0 19 -9 25 -20 6 -11 19 -20 29 -20 11 0 21
-7 25 -15 3 -8 15 -15 26 -15 11 0 20 -4 20 -10 0 -5 8 -10 18 -10 22 0 72
-22 72 -32 0 -4 17 -10 38 -14 20 -4 40 -11 43 -17 9 -13 289 -13 298 0 3 5
28 13 55 17 28 3 52 10 55 14 4 5 32 14 64 21 31 7 57 16 57 21 0 5 14 12 32
15 17 4 38 14 46 21 7 8 22 14 33 14 10 0 19 4 19 9 0 5 14 14 30 20 17 5 30
15 30 20 0 6 11 13 25 17 44 11 27 21 -44 26 -44 3 -75 11 -85 21 -9 9 -25 18
-35 22 -10 3 -22 17 -25 30 -4 14 -11 25 -16 25 -5 0 -17 15 -26 33 -9 17 -20
34 -23 37 -4 3 -18 27 -31 55 -14 27 -33 58 -42 69 -10 11 -18 33 -18 48 0 16
-7 31 -15 34 -8 4 -15 12 -15 20 0 8 -4 14 -9 14 -5 0 -12 19 -16 43 -4 23
-10 44 -14 47 -11 9 -31 50 -31 64 0 8 -6 21 -13 28 -15 15 -30 54 -48 123 -7
28 -18 55 -24 60 -7 6 -17 36 -24 67 -7 31 -17 58 -23 60 -5 2 -12 25 -15 51
-3 26 -10 47 -14 47 -5 0 -9 9 -9 20 0 11 -4 20 -10 20 -5 0 -10 14 -10 30 0
17 4 30 8 30 5 0 17 25 27 55 11 30 22 55 25 55 4 0 15 27 25 60 10 33 22 60
26 60 4 0 15 24 24 53 10 28 23 57 29 62 7 6 20 31 30 58 10 26 21 47 25 47 4
0 13 18 20 40 6 21 17 45 24 52 7 7 19 29 26 48 8 19 19 40 25 45 7 6 22 32
34 58 13 27 32 58 43 70 10 11 19 27 19 34 0 7 9 21 20 30 11 10 20 23 20 29
0 7 14 25 30 41 17 15 30 33 30 39 0 7 21 34 46 60 25 27 53 61 62 77 9 15 20
27 24 27 12 0 72 59 66 65 -3 3 -30 8 -59 12 -30 3 -56 9 -59 14 -3 4 -118 13
-255 19 -253 12 -602 1 -615 -19 -3 -5 -35 -12 -72 -16 -38 -4 -68 -11 -68
-15 0 -5 -13 -11 -30 -15 -16 -4 -30 -11 -30 -16 0 -5 -9 -9 -20 -9 -11 0 -29
-9 -40 -20 -11 -11 -24 -20 -30 -20 -5 0 -14 -9 -20 -20 -6 -11 -17 -20 -25
-20 -9 0 -23 9 -32 20 -10 11 -23 20 -30 20 -7 0 -13 4 -13 9 0 5 -16 15 -35
21 -19 6 -35 16 -35 21 0 5 -9 9 -19 9 -11 0 -26 6 -33 13 -7 8 -30 17 -51 21
-20 4 -37 11 -37 15 0 9 -122 31 -174 31 -20 0 -36 5 -36 10 0 6 -48 10 -125
10 -77 0 -125 -4 -125 -10z"/>
 <defs>
            <linearGradient id="skyGradient" x1="100%" y1="100%">
              <stop offset="0%" stop-color="lightblue" stop-opacity=".5">
                <animate attributeName="stop-color" values="lightblue;blue;red;red;black;red;red;purple;lightblue" dur="14s" repeatCount="indefinite" />
              </stop>
              <stop offset="100%" stop-color="lightblue" stop-opacity=".5">
                <animate attributeName="stop-color" values="lightblue;orange;purple;purple;black;purple;purple;blue;lightblue" dur="14s" repeatCount="indefinite" />
                <animate attributeName="offset" values=".95;.80;.60;.40;.20;0;.20;.40;.60;.80;.95" dur="14s" repeatCount="indefinite" />
              </stop>
            </linearGradient>
    </defs></g>

</svg>
