<svg id="svg" version="1.1" width="400" height="400" viewBox="0 0 400 400" xmlns="http://www.w3.org/2000/svg"  ><g id="svgg"><path id="path0" d="M223.600 86.839 C 219.321 87.095,210.175 89.065,209.000 89.983 C 208.780 90.155,207.887 90.526,207.016 90.807 C 205.456 91.310,201.973 92.884,200.800 93.617 C 200.470 93.823,199.491 94.374,198.625 94.842 C 197.759 95.310,196.801 95.942,196.497 96.246 C 196.192 96.551,195.783 96.800,195.587 96.800 C 195.163 96.800,188.233 102.463,186.800 103.981 C 181.170 109.942,174.400 119.926,174.400 122.267 C 174.400 122.560,174.253 122.800,174.073 122.800 C 173.893 122.800,173.431 123.835,173.045 125.100 C 172.659 126.365,172.101 127.940,171.805 128.600 C 171.509 129.260,170.990 131.060,170.652 132.600 C 170.314 134.140,169.811 136.210,169.534 137.200 C 168.720 140.103,168.834 157.929,169.685 161.000 C 170.051 162.320,170.644 164.657,171.003 166.192 C 171.362 167.728,171.798 169.168,171.973 169.392 C 172.147 169.617,172.415 170.340,172.568 171.000 C 172.722 171.660,173.179 172.920,173.585 173.800 C 173.991 174.680,174.696 176.210,175.152 177.200 C 175.607 178.190,176.208 179.360,176.486 179.800 C 176.764 180.240,177.490 181.410,178.099 182.400 C 179.817 185.194,180.041 185.507,182.647 188.752 C 189.106 196.797,201.025 205.348,208.419 207.244 C 209.509 207.523,210.400 207.878,210.400 208.033 C 210.400 208.188,212.155 208.640,214.300 209.038 C 216.445 209.435,218.328 209.949,218.485 210.180 C 218.886 210.770,238.478 210.755,239.238 210.164 C 239.547 209.924,241.150 209.500,242.800 209.221 C 244.450 208.943,246.340 208.480,247.000 208.193 C 247.660 207.905,249.190 207.358,250.400 206.976 C 251.610 206.594,252.690 206.164,252.800 206.020 C 252.910 205.877,253.841 205.444,254.868 205.058 C 255.896 204.673,256.953 204.097,257.217 203.779 C 257.482 203.461,257.914 203.200,258.178 203.200 C 258.442 203.200,259.365 202.665,260.229 202.011 C 261.093 201.357,261.965 200.817,262.166 200.811 C 262.368 200.805,262.818 200.526,263.166 200.192 C 263.515 199.858,264.790 198.836,266.000 197.923 C 268.563 195.988,275.600 188.887,275.600 188.236 C 275.600 187.992,275.960 187.568,276.400 187.293 C 276.840 187.018,277.200 186.585,277.200 186.330 C 277.200 186.075,277.474 185.582,277.810 185.234 C 279.754 183.214,284.699 173.716,285.429 170.600 C 285.584 169.940,285.863 169.204,286.051 168.964 C 286.238 168.725,286.673 167.105,287.017 165.364 C 287.361 163.624,287.803 161.840,287.998 161.400 C 289.500 158.021,289.530 139.557,288.040 136.200 C 287.844 135.760,287.361 133.870,286.965 132.000 C 286.570 130.130,286.141 128.510,286.012 128.400 C 285.883 128.290,285.460 127.169,285.071 125.908 C 282.158 116.463,271.186 102.294,262.727 97.053 C 261.997 96.601,261.310 96.113,261.200 95.969 C 261.090 95.825,260.211 95.278,259.248 94.754 C 258.284 94.229,256.934 93.495,256.248 93.122 C 255.561 92.749,253.830 91.961,252.400 91.369 C 250.970 90.778,249.260 90.066,248.600 89.788 C 247.940 89.509,246.320 89.053,245.000 88.775 C 243.680 88.496,242.420 88.137,242.200 87.977 C 240.985 87.094,230.284 86.440,223.600 86.839 M232.338 91.196 C 235.273 91.399,237.883 91.725,238.138 91.921 C 238.392 92.117,239.950 92.595,241.600 92.983 C 243.250 93.371,244.780 93.818,245.000 93.975 C 245.220 94.133,246.296 94.594,247.392 94.999 C 254.680 97.696,264.478 105.396,269.533 112.400 C 270.407 113.610,271.370 114.876,271.674 115.213 C 271.978 115.551,272.544 116.451,272.932 117.213 C 273.320 117.976,274.180 119.590,274.843 120.800 C 278.620 127.690,281.186 138.024,281.198 146.400 C 281.203 150.030,280.418 158.044,280.002 158.600 C 279.838 158.820,279.389 160.433,279.005 162.184 C 278.622 163.936,278.077 165.736,277.796 166.184 C 277.514 166.633,277.156 167.450,276.999 168.000 C 275.211 174.298,266.598 185.857,259.541 191.429 C 256.390 193.917,246.894 199.200,245.572 199.200 C 245.346 199.200,244.630 199.474,243.982 199.810 C 242.670 200.488,236.895 201.835,232.600 202.465 C 229.709 202.889,219.058 202.615,218.249 202.096 C 218.002 201.938,216.180 201.424,214.200 200.953 C 209.258 199.779,204.947 198.046,200.584 195.480 C 198.965 194.528,195.391 192.187,194.659 191.600 C 193.699 190.830,184.896 181.999,184.272 181.180 C 183.821 180.588,181.535 177.092,180.492 175.400 C 179.539 173.855,176.800 167.979,176.800 167.481 C 176.800 167.204,176.557 166.623,176.259 166.189 C 175.962 165.755,175.411 164.050,175.035 162.400 C 174.660 160.750,174.177 159.078,173.963 158.684 C 172.712 156.386,172.680 135.701,173.925 134.818 C 174.094 134.698,174.562 133.160,174.965 131.400 C 175.368 129.640,175.824 128.020,175.980 127.800 C 176.135 127.580,176.592 126.500,176.994 125.400 C 178.028 122.576,181.256 116.422,182.300 115.287 C 182.575 114.988,182.800 114.610,182.800 114.447 C 182.800 114.284,183.115 113.802,183.500 113.375 C 183.885 112.948,184.697 111.934,185.304 111.122 C 186.861 109.037,192.131 103.900,194.772 101.893 C 195.997 100.962,197.060 100.065,197.133 99.900 C 197.207 99.735,197.406 99.600,197.576 99.600 C 197.746 99.600,199.396 98.737,201.243 97.681 C 203.089 96.626,205.500 95.431,206.600 95.025 C 207.700 94.619,208.780 94.153,209.000 93.988 C 209.220 93.823,210.750 93.382,212.400 93.008 C 214.050 92.633,215.760 92.166,216.200 91.969 C 218.499 90.939,224.468 90.654,232.338 91.196 M209.000 111.556 C 208.560 111.745,208.077 111.829,207.928 111.743 C 207.778 111.657,207.542 111.770,207.404 111.993 C 207.266 112.217,206.758 112.403,206.276 112.406 C 205.101 112.414,202.912 113.238,201.200 114.315 C 200.430 114.800,199.675 115.198,199.521 115.199 C 198.176 115.206,190.400 122.658,190.400 123.940 C 190.400 124.193,190.252 124.400,190.071 124.400 C 188.187 124.400,183.891 136.297,183.139 143.600 C 182.703 147.836,183.227 156.587,183.961 157.321 C 184.203 157.563,184.400 158.063,184.400 158.434 C 184.400 159.496,186.370 160.611,187.263 160.054 C 187.662 159.804,189.333 159.600,190.975 159.600 C 193.815 159.600,197.974 158.808,198.948 158.082 C 199.196 157.896,200.185 157.496,201.144 157.193 C 203.286 156.517,203.958 155.357,203.293 153.480 C 202.008 149.847,202.416 142.466,203.973 141.200 C 204.108 141.090,204.533 140.505,204.918 139.900 C 205.303 139.295,205.875 138.800,206.189 138.800 C 206.503 138.800,206.923 138.510,207.121 138.156 C 208.423 135.828,214.740 137.869,216.163 141.077 C 216.535 141.915,217.019 142.926,217.238 143.325 C 217.966 144.645,216.937 146.917,213.013 152.650 C 212.580 153.283,211.841 154.172,211.371 154.628 C 210.900 155.083,210.444 155.633,210.357 155.851 C 210.142 156.394,205.827 159.600,205.313 159.600 C 205.085 159.600,204.698 159.840,204.455 160.134 C 204.211 160.428,203.289 160.907,202.406 161.198 C 201.523 161.490,200.800 161.851,200.800 162.002 C 200.800 162.152,199.225 162.585,197.300 162.964 C 195.375 163.343,193.487 163.821,193.105 164.027 C 192.723 164.232,191.801 164.400,191.055 164.400 C 188.258 164.400,187.200 164.818,187.200 165.922 C 187.200 166.885,191.392 173.600,191.993 173.600 C 192.142 173.600,192.506 174.050,192.800 174.600 C 193.094 175.150,193.575 175.600,193.868 175.600 C 194.160 175.600,194.400 175.765,194.400 175.966 C 194.400 176.167,195.345 177.066,196.500 177.962 C 197.655 178.859,198.817 179.774,199.083 179.996 C 199.349 180.218,199.651 180.400,199.755 180.400 C 199.859 180.400,201.122 180.945,202.562 181.612 C 208.382 184.305,220.771 184.286,224.800 181.577 C 225.350 181.208,226.205 180.779,226.700 180.626 C 227.195 180.472,227.600 180.178,227.600 179.973 C 227.600 179.768,227.825 179.597,228.100 179.592 C 228.375 179.588,229.318 178.958,230.196 178.192 C 232.253 176.397,232.426 176.423,234.231 178.790 C 235.066 179.884,236.345 181.062,237.074 181.408 C 237.803 181.754,238.400 182.209,238.400 182.419 C 238.400 182.628,238.608 182.800,238.861 182.800 C 239.115 182.800,240.330 183.291,241.561 183.892 C 245.025 185.581,253.822 185.645,256.200 183.999 C 256.420 183.847,257.590 183.407,258.800 183.021 C 260.010 182.635,261.090 182.198,261.200 182.049 C 261.310 181.900,262.165 181.441,263.100 181.028 C 264.035 180.616,264.800 180.138,264.800 179.966 C 264.800 179.794,265.160 179.540,265.600 179.400 C 267.158 178.906,265.363 177.600,263.125 177.600 C 261.383 177.600,259.370 175.282,257.133 170.700 C 256.622 169.655,256.069 168.800,255.902 168.800 C 255.736 168.800,255.600 168.536,255.600 168.214 C 255.600 167.891,255.304 166.946,254.942 166.114 C 254.580 165.281,254.058 164.060,253.781 163.400 C 253.505 162.740,252.909 161.390,252.457 160.400 C 251.501 158.306,249.749 153.308,249.162 151.000 C 248.938 150.120,248.502 149.012,248.192 148.537 C 247.706 147.791,247.709 147.607,248.215 147.188 C 248.537 146.921,248.800 146.492,248.800 146.236 C 248.800 145.979,249.160 145.063,249.600 144.200 C 250.040 143.337,250.400 142.471,250.400 142.276 C 250.400 141.907,255.358 131.452,256.032 130.400 C 256.243 130.070,256.703 129.170,257.053 128.400 C 257.403 127.630,257.825 126.910,257.989 126.800 C 258.154 126.690,258.610 125.970,259.003 125.200 C 259.614 124.005,260.227 123.095,262.101 120.600 C 263.944 118.147,266.155 115.626,266.620 115.448 C 266.939 115.325,267.200 114.786,267.200 114.249 C 267.200 112.736,263.480 112.285,251.000 112.285 C 238.580 112.286,233.187 113.346,230.955 116.228 C 230.573 116.722,230.376 116.704,229.552 116.101 C 228.075 115.020,226.867 114.400,226.239 114.400 C 225.924 114.400,225.600 114.201,225.519 113.958 C 225.336 113.407,222.552 112.414,221.167 112.406 C 220.598 112.403,220.008 112.275,219.855 112.122 C 219.174 111.441,210.340 110.981,209.000 111.556 " stroke="none" fill="url(#skyGradient)" fill-rule="evenodd"></path><path id="path1" d="M248.691 111.889 C 249.401 111.977,250.661 111.979,251.491 111.892 C 252.321 111.805,251.740 111.733,250.200 111.731 C 248.660 111.729,247.981 111.800,248.691 111.889 M128.433 167.253 C 127.242 167.451,126.072 167.768,125.833 167.958 C 125.595 168.148,124.365 168.600,123.100 168.963 C 121.835 169.326,120.800 169.761,120.800 169.931 C 120.800 170.100,120.172 170.466,119.404 170.744 C 118.637 171.022,117.782 171.465,117.504 171.730 C 117.227 171.994,116.550 172.498,116.000 172.851 C 114.324 173.923,110.800 177.319,110.800 177.862 C 110.800 178.142,110.472 178.547,110.072 178.761 C 109.672 178.976,109.094 179.927,108.789 180.875 C 108.483 181.824,108.083 182.705,107.899 182.834 C 106.952 183.499,106.939 194.072,107.885 194.766 C 108.805 195.441,109.320 198.163,108.607 198.584 C 107.616 199.168,105.200 201.436,105.200 201.782 C 105.200 201.940,104.671 202.819,104.024 203.735 C 103.376 204.651,102.726 206.075,102.579 206.900 C 102.432 207.725,102.172 208.400,102.002 208.400 C 101.831 208.400,101.572 209.363,101.425 210.540 C 101.175 212.543,101.094 212.669,100.179 212.494 C 99.640 212.391,99.200 212.164,99.200 211.990 C 99.200 210.224,86.480 210.520,82.715 212.373 C 79.940 213.739,74.800 218.519,74.800 219.733 C 74.800 220.068,74.522 220.621,74.181 220.962 C 72.211 222.932,71.959 236.241,73.868 237.543 C 74.076 237.684,74.493 238.411,74.796 239.159 C 75.098 239.906,76.390 241.526,77.665 242.759 C 80.775 245.763,81.163 246.071,83.010 247.000 C 83.884 247.440,84.693 247.923,84.807 248.072 C 84.920 248.222,86.180 248.663,87.607 249.053 C 89.033 249.443,90.291 249.889,90.402 250.046 C 91.446 251.515,111.200 251.426,111.200 249.951 C 111.200 249.758,111.539 249.600,111.954 249.600 C 112.855 249.600,116.915 248.348,117.200 247.983 C 117.310 247.842,118.255 247.404,119.300 247.009 C 120.345 246.614,121.200 246.144,121.200 245.964 C 121.200 245.785,121.839 245.334,122.619 244.964 C 124.484 244.079,130.505 238.160,131.229 236.500 C 131.540 235.785,131.926 235.200,132.086 235.200 C 132.247 235.200,132.674 234.165,133.037 232.900 C 133.400 231.635,133.900 230.347,134.148 230.039 C 134.770 229.267,134.753 219.239,134.129 217.963 C 133.869 217.433,133.360 216.055,132.996 214.900 C 132.633 213.745,132.206 212.800,132.048 212.800 C 131.890 212.800,131.541 212.192,131.273 211.450 C 131.004 210.707,130.339 209.582,129.796 208.950 C 126.711 205.362,125.107 203.592,122.500 200.897 C 120.905 199.249,119.600 197.719,119.600 197.498 C 119.600 197.048,124.452 197.468,124.795 197.947 C 124.908 198.105,125.763 198.479,126.696 198.779 C 129.518 199.688,134.800 204.566,134.800 206.263 C 134.800 206.825,135.886 206.972,136.967 206.557 C 139.288 205.667,135.081 199.079,130.810 196.914 C 130.034 196.521,129.310 196.084,129.200 195.941 C 128.676 195.264,124.981 194.654,121.036 194.595 L 116.671 194.529 115.518 193.165 C 114.884 192.414,114.183 191.572,113.960 191.293 C 112.704 189.720,112.687 180.800,113.939 180.800 C 114.085 180.800,114.439 180.271,114.725 179.624 C 115.236 178.470,118.227 175.200,118.772 175.200 C 118.924 175.200,119.398 174.878,119.825 174.485 C 121.974 172.504,126.082 171.052,130.027 170.880 C 133.795 170.715,138.400 171.330,138.400 171.997 C 138.400 172.185,138.994 172.534,139.719 172.773 C 144.064 174.207,146.918 180.851,145.175 185.474 C 144.679 186.791,142.464 189.200,141.750 189.200 C 141.479 189.200,140.942 189.515,140.557 189.900 C 139.980 190.477,139.116 190.601,135.629 190.607 L 131.400 190.614 131.276 191.890 C 131.154 193.143,131.188 193.171,133.176 193.435 C 134.289 193.582,135.200 193.860,135.200 194.052 C 135.200 194.243,136.460 194.400,138.000 194.400 C 139.600 194.400,140.800 194.229,140.800 194.000 C 140.800 193.780,141.244 193.600,141.786 193.600 C 143.106 193.600,146.396 192.461,147.096 191.761 C 147.405 191.453,147.807 191.200,147.990 191.200 C 148.554 191.200,151.200 188.683,151.200 188.146 C 151.200 187.868,151.434 187.496,151.720 187.320 C 153.388 186.294,153.659 175.200,152.015 175.200 C 151.840 175.200,151.485 174.688,151.225 174.061 C 150.966 173.435,150.269 172.534,149.677 172.060 C 146.709 169.681,146.080 169.272,144.600 168.759 C 143.720 168.454,142.910 168.086,142.800 167.941 C 142.047 166.949,132.905 166.511,128.433 167.253 M316.100 175.482 C 315.605 175.578,315.200 175.784,315.200 175.940 C 315.200 176.097,314.397 176.462,313.416 176.752 C 312.434 177.042,311.237 177.621,310.754 178.040 C 310.272 178.458,309.735 178.800,309.562 178.800 C 308.882 178.800,303.909 183.371,301.394 186.306 C 299.936 188.008,298.406 189.775,297.993 190.234 C 297.581 190.693,297.024 191.548,296.757 192.134 C 296.490 192.720,296.161 193.200,296.027 193.200 C 295.892 193.200,295.426 193.871,294.991 194.690 C 294.556 195.510,293.885 196.500,293.500 196.890 C 293.115 197.281,292.800 197.771,292.800 197.980 C 292.800 198.189,292.260 199.160,291.600 200.138 C 290.940 201.116,290.400 202.115,290.400 202.358 C 290.400 202.601,290.216 202.800,289.990 202.800 C 289.765 202.800,289.404 203.262,289.190 203.827 C 288.975 204.392,288.370 205.427,287.846 206.127 C 287.322 206.827,286.770 207.805,286.619 208.300 C 286.469 208.795,286.219 209.200,286.064 209.200 C 285.909 209.200,285.426 209.875,284.991 210.700 C 284.556 211.525,284.062 212.380,283.894 212.600 C 283.159 213.563,281.555 216.128,280.949 217.311 C 280.586 218.020,280.159 218.690,280.000 218.800 C 279.841 218.910,279.414 219.580,279.051 220.289 C 278.380 221.598,276.709 224.241,276.048 225.038 C 275.849 225.278,275.377 226.071,275.000 226.800 C 274.623 227.529,273.974 228.491,273.557 228.938 C 273.141 229.385,272.800 229.978,272.800 230.256 C 272.800 230.533,272.568 230.904,272.284 231.080 C 272.000 231.256,271.415 231.964,270.984 232.652 C 269.954 234.298,267.431 237.259,265.247 239.387 C 262.785 241.787,262.290 242.190,260.755 243.045 C 260.010 243.460,259.310 243.915,259.200 244.055 C 257.898 245.718,253.645 244.814,252.357 242.600 C 251.630 241.350,251.332 237.600,251.960 237.600 C 252.158 237.600,252.539 236.686,252.807 235.569 C 253.075 234.452,253.536 233.446,253.832 233.332 C 254.128 233.219,254.492 232.738,254.642 232.263 C 254.792 231.788,255.564 230.595,256.357 229.612 C 257.151 228.628,258.070 227.483,258.400 227.068 C 259.744 225.375,261.963 223.200,262.346 223.200 C 262.571 223.200,262.990 222.877,263.277 222.482 C 263.565 222.087,264.520 221.430,265.400 221.023 C 266.280 220.615,267.129 220.083,267.286 219.841 C 267.681 219.232,274.106 219.319,274.312 219.937 C 274.696 221.088,278.670 220.479,279.206 219.187 C 280.131 216.953,279.338 215.470,276.985 215.037 C 274.776 214.630,268.694 215.318,268.467 216.000 C 268.393 216.220,268.003 216.400,267.600 216.400 C 263.773 216.400,246.800 230.648,246.800 233.860 C 246.800 234.126,246.547 234.595,246.239 234.904 C 245.421 235.722,244.400 238.985,244.400 240.781 C 244.400 241.659,244.185 242.405,243.905 242.498 C 243.511 242.630,243.511 242.886,243.905 243.751 C 244.177 244.348,244.400 245.198,244.400 245.639 C 244.400 246.998,245.523 248.699,246.791 249.260 C 247.456 249.554,248.000 249.931,248.000 250.098 C 248.000 250.264,249.620 250.400,251.600 250.400 C 253.580 250.400,255.200 250.259,255.200 250.087 C 255.200 249.915,256.020 249.533,257.022 249.237 C 258.024 248.941,259.063 248.496,259.329 248.249 C 259.596 248.002,260.441 247.454,261.207 247.031 C 261.973 246.608,262.744 246.023,262.920 245.731 C 263.708 244.422,264.400 245.189,264.400 247.371 C 264.400 250.371,265.028 250.938,268.103 250.715 C 269.401 250.621,270.584 250.357,270.732 250.129 C 270.879 249.901,271.810 249.330,272.800 248.860 C 274.770 247.927,277.284 246.457,277.600 246.055 C 278.895 244.405,281.600 242.821,281.600 243.712 C 281.600 245.622,284.489 249.600,285.876 249.600 C 286.164 249.600,286.400 249.759,286.400 249.953 C 286.400 251.411,298.036 251.499,299.200 250.049 C 299.310 249.912,299.992 249.471,300.716 249.068 C 302.336 248.167,305.106 245.333,305.452 244.222 C 305.593 243.770,305.897 243.278,306.129 243.130 C 307.866 242.016,306.254 232.183,304.042 230.400 C 303.906 230.290,303.034 229.030,302.105 227.600 C 301.176 226.170,300.257 224.809,300.062 224.575 C 297.302 221.260,299.370 220.013,306.306 220.812 C 310.827 221.333,314.141 221.029,314.790 220.033 C 314.906 219.856,315.585 219.412,316.300 219.046 C 317.015 218.679,317.600 218.179,317.600 217.934 C 317.600 217.689,317.901 217.268,318.268 217.000 C 318.776 216.628,318.944 215.838,318.968 213.690 C 319.014 209.636,317.469 208.148,314.140 209.042 C 312.720 209.423,312.571 212.988,313.953 213.510 C 315.445 214.075,315.757 214.795,314.868 215.623 C 313.983 216.447,310.800 216.742,310.800 216.000 C 310.800 215.759,309.133 215.600,306.600 215.600 C 304.290 215.600,302.400 215.760,302.400 215.955 C 302.400 216.151,301.777 216.428,301.016 216.571 C 299.548 216.846,296.400 219.366,296.400 220.266 C 296.400 220.560,296.227 220.800,296.015 220.800 C 294.831 220.800,294.495 227.363,295.565 229.600 C 296.607 231.778,297.466 233.272,297.824 233.529 C 298.914 234.314,300.599 238.692,300.579 240.688 C 300.517 246.911,291.431 250.092,286.442 245.637 C 284.391 243.807,284.380 239.241,286.425 238.592 C 286.851 238.457,287.200 238.178,287.200 237.973 C 287.200 237.768,287.584 237.600,288.052 237.600 C 288.801 237.600,288.877 237.768,288.680 238.982 C 288.228 241.770,289.379 243.181,292.118 243.195 C 296.276 243.215,296.441 235.373,292.300 234.525 C 291.695 234.401,291.200 234.143,291.200 233.950 C 291.200 233.463,288.104 233.509,287.800 234.000 C 287.664 234.220,287.114 234.400,286.578 234.400 C 285.379 234.400,282.400 237.000,282.400 238.047 C 282.400 238.461,282.220 238.800,282.000 238.800 C 281.780 238.800,281.600 239.329,281.600 239.976 C 281.600 240.623,281.420 241.264,281.200 241.400 C 280.980 241.536,280.800 241.457,280.800 241.224 C 280.800 240.397,278.980 240.850,277.615 242.016 C 276.853 242.667,276.011 243.200,275.744 243.200 C 275.476 243.200,275.011 243.446,274.710 243.747 C 273.766 244.691,272.400 244.952,272.400 244.188 C 272.400 243.538,275.514 236.798,275.998 236.400 C 276.132 236.290,276.574 235.480,276.980 234.600 C 277.386 233.720,277.843 232.910,277.996 232.800 C 278.148 232.690,278.596 231.745,278.991 230.700 C 279.386 229.655,279.837 228.800,279.994 228.800 C 280.150 228.800,280.618 228.035,281.032 227.100 C 281.447 226.165,282.003 225.173,282.269 224.896 C 282.534 224.618,282.978 223.763,283.256 222.996 C 283.534 222.228,283.892 221.600,284.053 221.600 C 284.214 221.600,284.459 221.244,284.598 220.808 C 284.835 220.058,287.213 215.859,287.887 215.000 C 288.059 214.780,288.560 213.880,289.000 213.000 C 289.440 212.120,289.943 211.294,290.119 211.165 C 290.294 211.036,290.744 210.376,291.119 209.699 C 291.493 209.022,292.229 207.688,292.754 206.734 C 293.278 205.780,293.832 204.910,293.984 204.800 C 294.136 204.690,294.607 203.975,295.030 203.212 C 295.454 202.449,296.115 201.470,296.500 201.037 C 296.885 200.603,297.200 200.022,297.200 199.744 C 297.200 199.467,297.427 199.096,297.704 198.920 C 297.981 198.744,298.562 197.925,298.995 197.100 C 299.428 196.275,299.916 195.600,300.081 195.600 C 300.245 195.600,300.664 195.050,301.011 194.379 C 301.358 193.707,301.914 192.852,302.247 192.479 C 302.579 192.105,303.388 191.080,304.046 190.200 C 304.703 189.320,305.637 188.099,306.121 187.486 C 307.329 185.956,311.926 181.200,312.197 181.200 C 312.318 181.200,313.111 180.741,313.959 180.180 C 315.433 179.204,317.356 179.117,318.000 179.997 C 319.809 182.468,325.937 183.284,326.813 181.170 C 328.552 176.970,323.181 174.119,316.100 175.482 M114.047 203.769 C 117.455 207.372,121.200 211.859,121.200 212.339 C 121.200 212.571,121.476 212.915,121.813 213.103 C 122.433 213.450,122.727 213.924,125.147 218.469 C 131.562 230.519,123.650 244.859,109.279 247.230 C 107.806 247.473,106.287 247.836,105.905 248.036 C 104.963 248.530,98.909 248.500,98.600 248.000 C 98.464 247.780,97.911 247.600,97.370 247.600 C 96.219 247.600,91.492 246.358,91.200 245.978 C 91.090 245.835,90.286 245.383,89.413 244.972 C 87.603 244.121,87.496 244.037,84.072 240.779 C 78.138 235.134,76.420 225.157,80.429 219.624 C 81.073 218.734,81.600 217.825,81.600 217.603 C 81.600 217.382,81.771 217.200,81.979 217.200 C 82.188 217.200,82.845 216.749,83.440 216.198 C 84.035 215.647,85.214 214.988,86.061 214.735 C 86.907 214.481,87.600 214.122,87.600 213.937 C 87.600 213.488,93.492 213.502,93.770 213.951 C 93.889 214.144,94.754 214.497,95.693 214.735 C 97.270 215.135,98.728 216.034,100.412 217.642 C 100.815 218.027,101.195 219.266,101.362 220.742 C 101.515 222.094,101.811 223.200,102.020 223.200 C 102.229 223.200,102.400 223.461,102.400 223.779 C 102.400 225.051,104.225 226.400,105.946 226.400 C 106.856 226.400,107.600 226.220,107.600 226.000 C 107.600 225.780,107.862 225.600,108.182 225.600 C 110.427 225.600,109.319 219.617,106.562 216.848 L 104.322 214.600 104.566 212.487 C 104.865 209.902,105.668 206.800,106.040 206.800 C 106.190 206.800,106.419 206.380,106.548 205.866 C 106.850 204.662,110.768 200.733,111.324 201.076 C 111.557 201.221,112.782 202.432,114.047 203.769 M234.200 214.804 C 232.880 215.003,231.260 215.420,230.600 215.732 C 225.342 218.216,222.400 219.768,222.400 220.058 C 222.400 220.246,222.194 220.400,221.941 220.400 C 221.689 220.400,220.714 221.030,219.774 221.800 C 218.834 222.570,217.962 223.200,217.835 223.200 C 217.617 223.200,211.794 229.068,210.317 230.777 C 209.941 231.211,209.268 232.282,208.822 233.156 C 208.376 234.030,207.849 234.846,207.650 234.969 C 207.451 235.092,207.055 236.364,206.771 237.796 C 206.486 239.228,206.106 240.400,205.927 240.400 C 204.498 240.400,206.398 248.797,207.957 249.375 C 208.311 249.506,209.050 249.889,209.600 250.226 C 211.100 251.147,214.874 250.719,217.600 249.319 C 220.888 247.631,222.702 246.432,222.952 245.782 C 223.074 245.462,223.451 245.200,223.787 245.200 C 224.477 245.200,224.609 245.823,224.000 246.200 C 223.780 246.336,223.600 247.067,223.600 247.824 C 223.600 248.581,223.780 249.200,224.000 249.200 C 224.220 249.200,224.400 249.467,224.400 249.792 C 224.400 250.869,230.397 251.162,231.163 250.122 C 231.293 249.945,232.120 249.442,233.000 249.004 C 233.880 248.566,234.744 247.981,234.920 247.704 C 235.096 247.427,235.499 247.200,235.816 247.200 C 236.134 247.200,236.618 246.840,236.893 246.400 C 237.168 245.960,237.580 245.600,237.808 245.600 C 238.663 245.600,240.859 242.821,240.728 241.904 C 240.524 240.468,238.829 240.508,237.417 241.982 C 236.775 242.652,236.036 243.200,235.774 243.200 C 235.512 243.200,235.051 243.559,234.749 243.999 C 233.908 245.223,231.600 245.554,231.600 244.450 C 231.600 243.982,231.780 243.600,232.000 243.600 C 232.220 243.600,232.400 243.402,232.400 243.160 C 232.400 242.657,233.608 239.999,234.108 239.400 C 234.499 238.932,235.613 236.904,236.799 234.500 C 237.260 233.565,237.764 232.798,237.919 232.796 C 238.073 232.794,238.555 231.984,238.990 230.996 C 239.424 230.008,239.892 229.200,240.029 229.200 C 240.166 229.200,240.621 228.436,241.039 227.503 C 241.458 226.570,242.115 225.490,242.500 225.103 C 244.117 223.478,243.459 222.800,240.264 222.800 C 237.504 222.800,237.301 222.861,236.863 223.822 C 236.606 224.385,235.182 226.652,233.698 228.860 C 232.214 231.068,230.820 233.153,230.600 233.493 C 229.791 234.742,222.565 242.400,222.195 242.400 C 222.094 242.400,221.134 242.940,220.062 243.600 C 215.840 246.198,212.961 244.639,213.297 239.939 C 213.405 238.439,213.671 236.984,213.890 236.706 C 214.109 236.428,214.607 235.345,214.998 234.300 C 215.389 233.255,215.835 232.400,215.990 232.400 C 216.145 232.400,216.464 231.995,216.700 231.500 C 217.337 230.162,218.691 228.577,221.707 225.638 C 225.385 222.054,225.600 221.880,227.413 221.028 C 228.286 220.617,229.090 220.158,229.200 220.006 C 230.298 218.495,239.946 218.512,241.200 220.029 C 242.255 221.304,247.006 221.175,247.358 219.860 C 248.538 215.464,243.272 213.441,234.200 214.804 M160.600 215.206 C 159.500 215.375,158.060 215.801,157.400 216.154 C 156.740 216.507,155.910 216.796,155.556 216.798 C 155.202 216.799,154.249 217.250,153.438 217.800 C 152.628 218.350,151.818 218.800,151.639 218.800 C 151.289 218.800,146.313 222.411,145.000 223.619 C 144.246 224.312,141.992 226.619,140.194 228.539 C 138.915 229.904,137.267 232.489,136.774 233.902 C 136.525 234.616,136.179 235.200,136.004 235.200 C 135.193 235.200,134.370 242.255,134.837 245.206 C 135.198 247.494,136.750 249.600,138.075 249.600 C 138.474 249.600,138.800 249.780,138.800 250.000 C 138.800 250.233,140.133 250.400,142.000 250.400 C 143.760 250.400,145.200 250.259,145.200 250.087 C 145.200 249.915,146.055 249.532,147.100 249.236 C 148.145 248.940,149.180 248.487,149.400 248.230 C 149.620 247.973,150.407 247.515,151.148 247.213 C 151.890 246.910,152.855 246.289,153.293 245.831 C 154.027 245.065,154.019 245.139,153.198 246.775 C 152.708 247.751,152.069 248.788,151.778 249.079 C 151.487 249.370,151.022 250.237,150.744 251.004 C 150.466 251.772,150.097 252.400,149.923 252.400 C 149.749 252.400,149.290 253.001,148.903 253.734 C 148.516 254.468,147.759 255.908,147.220 256.934 C 146.681 257.961,146.124 258.800,145.981 258.800 C 145.838 258.800,145.379 259.564,144.961 260.497 C 144.542 261.430,143.885 262.510,143.500 262.897 C 143.115 263.284,142.800 263.782,142.800 264.003 C 142.800 264.225,142.260 265.152,141.600 266.063 C 140.940 266.975,140.400 267.963,140.400 268.260 C 140.400 268.557,140.228 268.800,140.019 268.800 C 139.809 268.800,139.274 269.565,138.829 270.500 C 138.384 271.435,137.214 273.460,136.227 275.000 C 135.241 276.540,134.426 278.025,134.417 278.300 C 134.408 278.575,134.222 278.800,134.005 278.800 C 133.788 278.800,133.365 279.385,133.065 280.100 C 132.595 281.219,131.105 283.687,130.106 285.002 C 129.622 285.639,128.000 288.683,128.000 288.954 C 128.000 289.627,134.429 289.189,134.680 288.500 C 134.820 288.115,135.420 287.080,136.013 286.200 C 136.605 285.320,137.217 284.195,137.372 283.700 C 137.527 283.205,137.794 282.800,137.966 282.800 C 138.138 282.800,138.603 282.080,139.000 281.200 C 139.397 280.320,139.840 279.600,139.984 279.600 C 140.128 279.600,140.564 278.880,140.952 278.000 C 141.340 277.120,141.788 276.400,141.947 276.400 C 142.106 276.400,142.570 275.590,142.978 274.600 C 143.387 273.610,143.865 272.800,144.042 272.800 C 144.218 272.800,144.680 272.125,145.068 271.300 C 145.456 270.475,146.095 269.451,146.487 269.025 C 146.879 268.598,147.200 268.026,147.200 267.753 C 147.200 267.480,147.477 266.981,147.815 266.643 C 148.153 266.305,148.695 265.392,149.020 264.614 C 149.345 263.836,149.754 263.200,149.928 263.200 C 150.103 263.200,150.582 262.439,150.992 261.509 C 151.402 260.579,152.067 259.465,152.469 259.034 C 152.871 258.602,153.200 258.041,153.200 257.786 C 153.200 257.531,153.554 256.914,153.987 256.415 C 154.420 255.916,155.004 254.989,155.285 254.354 C 155.565 253.719,155.904 253.200,156.037 253.200 C 156.170 253.200,156.621 252.436,157.039 251.503 C 157.458 250.570,158.115 249.490,158.500 249.103 C 158.885 248.716,159.200 248.229,159.200 248.020 C 159.200 247.811,159.740 246.840,160.400 245.862 C 161.060 244.884,161.600 243.885,161.600 243.642 C 161.600 243.399,161.762 243.200,161.960 243.200 C 162.159 243.200,162.654 242.391,163.060 241.401 C 163.467 240.412,163.930 239.602,164.090 239.601 C 164.249 239.601,164.679 239.015,165.046 238.300 C 165.412 237.585,165.823 236.910,165.960 236.800 C 166.096 236.690,166.566 235.880,167.004 235.000 C 167.442 234.120,167.943 233.294,168.119 233.165 C 168.431 232.934,169.033 231.907,170.852 228.500 C 171.351 227.565,171.904 226.800,172.080 226.800 C 172.256 226.800,172.400 226.440,172.400 226.000 C 172.400 225.285,172.134 225.200,169.900 225.203 L 167.400 225.205 165.832 228.103 C 164.970 229.696,164.159 231.090,164.029 231.200 C 163.899 231.310,163.318 232.120,162.739 233.000 C 160.216 236.833,153.980 242.231,150.961 243.197 C 150.102 243.472,149.229 243.855,149.020 244.048 C 147.548 245.410,142.400 243.649,142.400 241.784 C 142.400 241.463,142.220 241.200,142.000 241.200 C 141.780 241.200,141.600 240.300,141.600 239.200 C 141.600 238.100,141.780 237.200,142.000 237.200 C 142.220 237.200,142.400 236.846,142.400 236.414 C 142.400 235.132,143.609 231.957,144.434 231.071 C 144.855 230.619,145.200 230.007,145.200 229.712 C 145.200 229.417,145.470 229.071,145.800 228.945 C 146.130 228.818,146.400 228.486,146.400 228.206 C 146.400 227.531,153.478 220.800,154.188 220.800 C 154.493 220.800,154.981 220.567,155.271 220.283 C 157.667 217.941,164.887 218.049,166.691 220.454 C 166.961 220.814,167.636 221.223,168.191 221.362 C 168.746 221.501,169.200 221.792,169.200 222.008 C 169.200 222.223,169.650 222.400,170.200 222.400 C 170.750 222.400,171.200 222.241,171.200 222.047 C 171.200 221.852,171.560 221.599,172.000 221.484 C 173.245 221.158,173.166 217.421,171.900 216.754 C 171.405 216.494,170.901 216.129,170.779 215.945 C 170.162 215.007,164.555 214.600,160.600 215.206 M183.700 215.248 C 182.985 215.454,182.400 215.769,182.400 215.947 C 182.400 216.126,181.669 216.513,180.775 216.808 C 179.882 217.103,178.976 217.672,178.761 218.072 C 178.547 218.472,178.110 218.800,177.789 218.800 C 177.469 218.800,176.982 219.160,176.707 219.600 C 176.432 220.040,176.003 220.400,175.753 220.400 C 174.931 220.400,174.303 221.559,174.563 222.595 C 174.914 223.993,175.977 223.876,178.173 222.200 C 179.182 221.430,180.173 220.800,180.375 220.800 C 180.577 220.800,181.042 220.501,181.408 220.135 C 182.359 219.184,183.014 220.264,182.173 221.398 C 181.846 221.839,181.356 222.650,181.085 223.200 C 180.813 223.750,180.098 224.961,179.495 225.892 C 178.893 226.823,178.400 227.768,178.400 227.992 C 178.400 228.216,178.232 228.400,178.027 228.400 C 177.822 228.400,177.527 228.805,177.372 229.300 C 177.217 229.795,176.600 230.920,176.000 231.800 C 175.400 232.680,174.783 233.805,174.628 234.300 C 174.473 234.795,174.196 235.200,174.013 235.200 C 173.829 235.200,173.346 236.009,172.940 236.999 C 172.533 237.988,172.079 238.798,171.932 238.799 C 171.785 238.799,171.358 239.745,170.983 240.900 C 170.608 242.055,170.144 243.171,169.951 243.380 C 169.465 243.906,169.508 247.600,170.000 247.600 C 170.220 247.600,170.400 247.838,170.400 248.128 C 170.400 249.444,172.337 250.400,175.003 250.400 C 176.431 250.400,177.600 250.240,177.600 250.045 C 177.600 249.849,178.240 249.569,179.022 249.422 C 179.805 249.275,180.756 248.844,181.136 248.464 C 181.516 248.084,182.496 247.456,183.313 247.068 C 184.131 246.680,184.800 246.204,184.800 246.011 C 184.800 245.817,185.304 245.407,185.920 245.100 L 187.041 244.541 186.872 246.871 C 186.647 249.989,187.036 250.400,190.216 250.400 C 191.600 250.400,192.793 250.245,192.867 250.056 C 192.940 249.867,193.810 249.321,194.800 248.843 C 197.879 247.357,198.844 246.752,199.068 246.166 C 199.188 245.855,199.491 245.600,199.743 245.600 C 200.493 245.599,203.200 242.569,203.200 241.730 C 203.200 239.252,202.286 239.337,198.819 242.137 C 195.581 244.751,193.600 245.534,193.600 244.200 C 193.600 243.870,193.756 243.600,193.946 243.600 C 194.136 243.600,194.610 242.766,194.999 241.746 C 195.389 240.727,196.043 239.557,196.454 239.146 C 196.864 238.736,197.200 238.229,197.200 238.020 C 197.200 237.811,197.740 236.840,198.400 235.862 C 199.060 234.884,199.600 233.967,199.600 233.825 C 199.600 233.683,199.783 233.349,200.006 233.083 C 200.692 232.266,202.356 229.647,203.051 228.289 C 203.414 227.580,203.823 226.910,203.960 226.800 C 204.096 226.690,204.566 225.883,205.004 225.006 C 205.442 224.129,206.002 223.194,206.249 222.928 C 206.496 222.662,206.941 221.624,207.237 220.622 C 207.533 219.620,207.915 218.800,208.087 218.800 C 208.259 218.800,208.400 218.260,208.400 217.600 C 208.400 216.940,208.220 216.400,208.000 216.400 C 207.780 216.400,207.600 216.149,207.600 215.843 C 207.600 215.133,206.724 214.799,204.867 214.802 C 203.150 214.805,200.400 215.504,200.400 215.938 C 200.400 216.104,199.725 216.479,198.900 216.772 C 198.075 217.066,197.130 217.544,196.800 217.835 C 192.811 221.358,192.690 221.506,192.954 222.559 C 193.290 223.897,195.731 223.604,196.760 222.103 C 196.892 221.910,197.855 221.281,198.900 220.704 C 200.990 219.552,201.386 219.940,200.224 222.000 C 199.914 222.550,199.316 223.720,198.895 224.600 C 198.474 225.480,197.831 226.447,197.465 226.749 C 197.099 227.051,196.800 227.454,196.800 227.645 C 196.800 227.835,195.945 229.091,194.900 230.435 C 193.855 231.779,192.820 233.145,192.600 233.471 C 187.327 241.287,176.400 248.384,176.400 243.994 C 176.400 242.987,177.607 239.953,178.279 239.271 C 178.566 238.981,178.800 238.563,178.800 238.343 C 178.800 238.124,179.315 237.192,179.945 236.272 C 180.575 235.352,181.217 234.195,181.372 233.700 C 181.527 233.205,181.813 232.800,182.008 232.800 C 182.203 232.800,182.677 232.125,183.060 231.300 C 183.444 230.475,183.937 229.678,184.155 229.529 C 184.562 229.252,185.335 227.900,186.805 224.900 C 187.263 223.965,187.802 223.200,188.003 223.200 C 188.543 223.200,189.600 219.320,189.600 217.341 C 189.600 214.883,187.520 214.145,183.700 215.248 " stroke="none" fill="url(#skyGradient)" fill-rule="evenodd"></path>
 <defs>
            <linearGradient id="skyGradient" x1="100%" y1="100%">
              <stop offset="0%" stop-color="lightblue" stop-opacity=".5">
                <animate attributeName="stop-color" values="lightblue;blue;red;red;black;red;red;purple;lightblue" dur="14s" repeatCount="indefinite" />
              </stop>
              <stop offset="100%" stop-color="lightblue" stop-opacity=".5">
                <animate attributeName="stop-color" values="lightblue;orange;purple;purple;black;purple;purple;blue;lightblue" dur="14s" repeatCount="indefinite" />
                <animate attributeName="offset" values=".95;.80;.60;.40;.20;0;.20;.40;.60;.80;.95" dur="14s" repeatCount="indefinite" />
              </stop>
            </linearGradient>
    </defs></g></svg>