<svg id="svg" version="1.1" width="400" height="400" viewBox="0 0 400 400" xmlns="http://www.w3.org/2000/svg" xmlns:xlink="http://www.w3.org/1999/xlink" ><g id="svgg"><path id="path0" d="M59.800 154.400 C 59.943 154.632,62.137 154.800,65.024 154.800 C 68.075 154.800,70.000 154.645,70.000 154.400 C 70.000 154.154,67.992 154.000,64.776 154.000 C 61.396 154.000,59.640 154.141,59.800 154.400 M56.000 154.800 C 56.000 155.020,56.270 155.200,56.600 155.200 C 56.930 155.200,57.200 155.020,57.200 154.800 C 57.200 154.580,56.930 154.400,56.600 154.400 C 56.270 154.400,56.000 154.580,56.000 154.800 M198.407 159.038 C 196.761 159.376,195.321 159.783,195.207 159.943 C 195.093 160.103,194.211 160.488,193.247 160.798 C 192.283 161.109,191.261 161.596,190.976 161.881 C 190.690 162.167,190.278 162.400,190.059 162.400 C 189.840 162.400,188.836 163.030,187.827 163.800 C 186.818 164.570,185.878 165.200,185.736 165.200 C 185.321 165.200,182.028 168.814,180.745 170.679 C 179.346 172.714,178.410 175.567,178.404 177.820 C 178.402 178.711,178.175 179.679,177.900 179.970 C 177.500 180.394,177.500 180.537,177.900 180.683 C 178.192 180.791,178.400 181.570,178.400 182.561 C 178.400 184.460,179.474 188.467,180.086 188.850 C 180.306 188.987,179.341 190.254,177.943 191.664 C 174.933 194.700,173.306 197.768,172.733 201.489 C 172.236 204.718,172.306 204.614,171.135 203.872 C 167.808 201.764,155.148 201.995,152.940 204.203 C 152.611 204.531,152.162 204.800,151.941 204.800 C 151.579 204.800,147.333 208.967,146.106 210.525 C 145.835 210.871,145.323 211.929,144.969 212.877 C 144.615 213.824,144.117 215.032,143.863 215.561 C 143.264 216.804,143.257 224.777,143.854 226.039 C 144.104 226.568,144.550 227.802,144.845 228.782 C 145.141 229.762,145.701 230.837,146.091 231.171 C 146.481 231.505,146.800 231.964,146.800 232.191 C 146.800 232.695,151.451 237.200,151.972 237.200 C 152.176 237.200,152.613 237.470,152.942 237.799 C 153.823 238.681,158.297 240.669,160.600 241.203 C 161.700 241.458,163.032 241.877,163.560 242.133 C 164.866 242.768,178.719 242.772,180.039 242.139 C 180.568 241.885,182.250 241.388,183.779 241.035 C 185.307 240.682,186.657 240.252,186.779 240.080 C 186.900 239.907,187.789 239.512,188.753 239.202 C 189.717 238.891,190.710 238.449,190.960 238.219 C 191.210 237.988,192.041 237.450,192.807 237.022 C 193.573 236.595,194.406 236.055,194.658 235.822 C 194.910 235.590,195.708 234.950,196.432 234.400 C 198.075 233.151,200.800 230.433,200.800 230.043 C 200.800 229.882,201.146 229.380,201.569 228.926 C 205.341 224.876,207.189 208.483,204.102 206.447 C 203.896 206.311,203.404 205.345,203.009 204.300 C 202.614 203.255,202.136 202.400,201.946 202.400 C 201.756 202.400,201.600 202.201,201.600 201.957 C 201.600 201.387,198.604 197.618,197.582 196.902 C 197.152 196.601,196.800 196.170,196.800 195.944 C 196.800 195.717,195.450 194.195,193.800 192.561 C 190.739 189.530,190.286 188.800,191.467 188.800 C 192.846 188.800,197.200 189.694,197.200 189.977 C 197.200 190.139,197.927 190.512,198.816 190.805 C 200.721 191.434,204.071 194.587,205.214 196.828 C 205.957 198.284,207.600 199.091,207.600 198.000 C 207.600 197.780,207.893 197.600,208.250 197.600 C 208.975 197.600,208.741 195.122,207.991 194.867 C 207.776 194.793,207.600 194.493,207.600 194.199 C 207.600 193.443,203.910 189.497,202.542 188.790 C 201.914 188.466,201.178 187.990,200.906 187.734 C 200.403 187.261,196.982 186.400,195.604 186.400 C 195.188 186.400,194.736 186.220,194.600 186.000 C 194.464 185.780,193.294 185.600,192.000 185.600 C 190.706 185.600,189.536 185.780,189.400 186.000 C 188.480 187.489,185.292 184.349,184.620 181.291 C 184.465 180.586,184.172 179.906,183.969 179.781 C 183.527 179.508,183.467 175.600,183.905 175.600 C 184.073 175.600,184.434 174.655,184.706 173.500 C 184.979 172.345,185.472 171.200,185.801 170.956 C 186.130 170.712,186.400 170.341,186.400 170.132 C 186.400 169.813,188.785 167.505,190.714 165.955 C 195.554 162.067,207.369 161.087,210.729 164.295 C 211.019 164.573,211.491 164.800,211.778 164.800 C 212.213 164.800,214.300 166.906,216.095 169.157 C 218.762 172.503,215.402 180.601,211.004 181.426 C 210.227 181.571,209.493 181.850,209.372 182.045 C 209.069 182.536,204.800 182.494,204.800 182.000 C 204.800 181.343,202.906 181.548,202.643 182.233 C 201.995 183.921,202.363 184.756,203.900 185.082 C 207.541 185.854,216.800 185.095,216.800 184.025 C 216.800 183.876,217.514 183.439,218.386 183.054 C 220.568 182.091,223.068 179.164,223.403 177.180 C 223.550 176.311,223.834 175.600,224.035 175.600 C 224.534 175.600,224.500 170.109,224.000 169.800 C 223.780 169.664,223.600 169.194,223.600 168.757 C 223.600 167.988,222.553 165.609,222.035 165.200 C 221.896 165.090,221.467 164.505,221.082 163.900 C 220.697 163.295,220.110 162.800,219.778 162.800 C 219.446 162.800,219.080 162.553,218.964 162.250 C 218.848 161.948,217.998 161.368,217.076 160.961 C 216.154 160.555,215.310 160.120,215.200 159.995 C 214.022 158.657,203.247 158.043,198.407 159.038 M386.600 167.299 C 385.720 167.528,384.910 167.835,384.800 167.980 C 384.690 168.126,383.970 168.489,383.200 168.787 C 382.430 169.086,381.428 169.660,380.974 170.065 C 380.520 170.469,379.986 170.800,379.788 170.800 C 379.590 170.800,379.062 171.150,378.614 171.577 C 375.959 174.112,372.462 177.679,371.600 178.730 C 371.050 179.401,370.150 180.487,369.600 181.144 C 367.980 183.078,367.798 183.332,366.980 184.799 C 366.551 185.568,366.010 186.378,365.778 186.599 C 365.155 187.190,362.400 191.855,362.400 192.317 C 362.400 192.536,362.130 192.818,361.800 192.945 C 361.470 193.071,361.200 193.373,361.200 193.615 C 361.200 193.858,360.660 194.841,360.000 195.800 C 359.340 196.759,358.800 197.715,358.800 197.923 C 358.800 198.132,358.527 198.529,358.193 198.806 C 357.859 199.083,357.280 199.954,356.906 200.742 C 356.532 201.529,355.906 202.494,355.513 202.887 C 355.121 203.279,354.800 203.782,354.800 204.003 C 354.800 204.225,354.260 205.152,353.600 206.063 C 352.940 206.975,352.400 207.963,352.400 208.260 C 352.400 208.557,352.216 208.800,351.990 208.800 C 351.765 208.800,351.404 209.262,351.190 209.827 C 350.975 210.392,350.370 211.427,349.846 212.127 C 349.322 212.827,348.770 213.805,348.619 214.300 C 348.469 214.795,348.219 215.200,348.064 215.200 C 347.909 215.200,347.426 215.875,346.991 216.700 C 346.556 217.525,346.065 218.380,345.899 218.600 C 344.813 220.044,342.751 223.099,342.524 223.600 C 342.375 223.930,341.926 224.435,341.526 224.723 C 341.127 225.010,340.800 225.427,340.800 225.648 C 340.800 226.095,339.729 227.302,336.307 230.714 C 333.166 233.847,332.905 234.049,330.327 235.353 C 327.807 236.628,326.315 236.793,325.287 235.911 C 324.909 235.587,324.298 235.215,323.928 235.084 C 322.611 234.618,322.600 227.342,323.915 226.427 C 324.095 226.302,324.563 225.509,324.957 224.664 C 325.350 223.820,325.931 222.830,326.248 222.464 C 328.478 219.893,329.200 218.990,329.200 218.772 C 329.200 218.033,334.367 213.562,336.170 212.741 C 336.737 212.483,337.200 212.144,337.200 211.988 C 337.200 211.185,340.892 210.698,343.592 211.144 C 349.369 212.098,351.090 211.542,350.655 208.863 C 350.295 206.645,347.412 205.917,342.316 206.759 C 338.811 207.338,331.504 210.756,330.700 212.193 C 330.513 212.527,330.101 212.800,329.784 212.800 C 329.466 212.800,328.982 213.160,328.707 213.600 C 328.432 214.040,328.029 214.400,327.812 214.400 C 327.251 214.400,320.400 221.285,320.400 221.849 C 320.400 222.105,320.127 222.419,319.794 222.547 C 319.461 222.675,319.015 223.234,318.804 223.790 C 318.593 224.345,318.247 224.800,318.037 224.800 C 317.826 224.800,317.527 225.205,317.372 225.700 C 317.217 226.195,316.653 227.560,316.118 228.733 C 313.971 233.445,315.035 239.685,318.233 241.142 C 320.462 242.158,329.600 241.274,329.600 240.043 C 329.600 239.888,330.208 239.541,330.950 239.273 C 331.693 239.004,332.782 238.338,333.371 237.792 C 334.924 236.352,335.200 236.540,335.200 239.037 C 335.200 240.938,335.320 241.306,336.000 241.484 C 336.440 241.599,336.800 241.852,336.800 242.047 C 336.800 242.500,340.284 242.512,340.563 242.059 C 340.679 241.872,341.635 241.393,342.687 240.996 C 343.739 240.599,344.690 240.147,344.800 239.992 C 344.910 239.838,345.585 239.412,346.300 239.046 C 347.015 238.679,347.600 238.204,347.600 237.990 C 347.600 237.775,347.827 237.600,348.104 237.600 C 348.381 237.600,349.059 237.182,349.611 236.670 C 350.162 236.159,351.081 235.434,351.653 235.059 L 352.693 234.378 352.896 236.171 C 353.124 238.197,355.564 240.981,357.533 241.462 C 358.120 241.606,358.729 241.920,358.886 242.162 C 359.311 242.814,368.482 242.756,368.700 242.100 C 368.792 241.825,369.139 241.600,369.472 241.600 C 371.425 241.600,376.079 237.253,376.986 234.581 C 378.278 230.776,377.652 225.849,375.463 222.600 C 373.897 220.275,373.739 220.038,371.996 217.400 C 371.124 216.080,370.221 214.775,369.989 214.500 C 369.684 214.138,369.793 213.759,370.384 213.125 C 370.833 212.643,371.200 212.103,371.200 211.925 C 371.200 211.419,375.383 211.543,375.904 212.064 C 376.715 212.875,384.112 212.741,384.955 211.900 C 385.341 211.515,385.908 211.200,386.215 211.200 C 387.165 211.200,389.600 208.457,389.600 207.387 C 389.600 206.844,389.780 206.400,390.000 206.400 C 390.460 206.400,390.554 203.335,390.100 203.133 C 389.935 203.060,389.524 202.460,389.187 201.800 C 388.278 200.018,384.400 199.835,384.400 201.574 C 384.400 201.992,384.175 202.438,383.900 202.567 C 383.500 202.753,383.500 202.847,383.900 203.033 C 384.175 203.162,384.400 203.627,384.400 204.068 C 384.400 204.591,384.817 205.027,385.600 205.322 C 389.156 206.665,386.144 207.614,379.263 207.319 C 371.858 207.003,368.092 208.754,366.719 213.152 C 366.437 214.059,366.069 214.800,365.903 214.800 C 365.489 214.800,365.517 218.946,365.934 219.420 C 366.118 219.629,366.582 220.655,366.967 221.700 C 367.352 222.745,367.787 223.600,367.935 223.600 C 368.084 223.600,368.454 224.185,368.759 224.900 C 369.064 225.615,369.630 226.560,370.016 227.000 C 372.963 230.361,371.177 236.987,366.838 238.784 C 363.529 240.155,356.400 238.094,356.400 235.766 C 356.400 235.455,356.220 235.200,356.000 235.200 C 355.299 235.200,355.568 233.057,356.487 231.321 C 357.757 228.924,360.455 228.352,359.575 230.667 C 359.154 231.774,359.409 233.200,360.027 233.200 C 360.232 233.200,360.400 233.451,360.400 233.757 C 360.400 234.452,361.269 234.800,363.004 234.800 C 364.253 234.800,364.592 234.593,365.900 233.031 C 366.465 232.356,366.590 228.400,366.047 228.400 C 365.852 228.400,365.599 228.041,365.485 227.602 C 365.370 227.163,364.944 226.681,364.538 226.531 C 364.132 226.381,363.671 226.065,363.513 225.829 C 363.109 225.225,357.096 225.313,356.891 225.926 C 356.804 226.187,356.518 226.400,356.255 226.400 C 355.168 226.400,353.195 229.128,352.941 230.980 C 352.695 232.775,352.006 233.817,351.690 232.871 C 351.414 232.041,350.193 232.363,348.172 233.800 C 347.089 234.570,345.990 235.200,345.730 235.200 C 345.470 235.200,344.970 235.487,344.618 235.839 C 343.556 236.902,342.762 236.284,343.314 234.823 C 343.568 234.150,343.891 233.600,344.033 233.600 C 344.175 233.600,344.616 232.750,345.013 231.712 C 345.409 230.673,345.893 229.638,346.088 229.412 C 346.509 228.923,347.624 226.890,348.837 224.400 C 349.319 223.410,349.828 222.510,349.968 222.400 C 350.108 222.290,350.559 221.435,350.972 220.500 C 351.384 219.565,351.845 218.800,351.997 218.800 C 352.148 218.800,352.512 218.071,352.806 217.180 C 353.100 216.290,353.539 215.435,353.782 215.280 C 354.024 215.126,354.573 214.190,355.000 213.200 C 355.427 212.210,355.976 211.274,356.218 211.120 C 356.461 210.965,356.900 210.110,357.194 209.220 C 357.488 208.329,357.888 207.600,358.083 207.600 C 358.279 207.600,358.657 207.105,358.924 206.500 C 359.191 205.895,359.902 204.639,360.505 203.708 C 361.107 202.777,361.600 201.832,361.600 201.608 C 361.600 201.384,361.753 201.200,361.939 201.200 C 362.126 201.200,362.616 200.435,363.028 199.500 C 363.440 198.565,363.984 197.669,364.236 197.509 C 364.489 197.350,364.921 196.675,365.196 196.009 C 365.472 195.344,365.828 194.800,365.988 194.800 C 366.148 194.800,366.603 194.080,367.000 193.200 C 367.397 192.320,367.854 191.600,368.015 191.600 C 368.177 191.600,368.608 190.970,368.973 190.200 C 369.339 189.430,369.788 188.800,369.972 188.800 C 370.156 188.800,370.412 188.485,370.542 188.100 C 370.894 187.050,371.664 185.953,373.810 183.442 C 374.355 182.804,374.800 182.172,374.800 182.037 C 374.800 181.902,375.427 181.073,376.192 180.196 C 376.958 179.318,377.588 178.480,377.592 178.332 C 377.606 177.847,382.915 172.817,383.665 172.579 C 384.069 172.451,384.400 172.196,384.400 172.012 C 384.400 170.891,389.258 170.872,390.000 171.991 C 390.307 172.454,394.595 174.400,395.308 174.400 C 396.194 174.400,398.400 172.095,398.400 171.169 C 398.400 170.746,398.259 170.400,398.088 170.400 C 397.916 170.400,397.570 169.857,397.320 169.193 C 396.493 167.003,391.278 166.082,386.600 167.299 M23.161 171.016 C 20.071 174.202,19.903 174.400,20.298 174.400 C 20.758 174.400,25.735 169.202,25.500 168.967 C 25.402 168.869,24.349 169.791,23.161 171.016 M44.492 176.690 C 43.773 176.779,43.281 177.007,43.398 177.196 C 43.515 177.386,44.112 177.397,44.724 177.222 C 46.344 176.757,53.980 176.713,55.495 177.159 C 56.207 177.369,56.877 177.398,56.985 177.224 C 57.411 176.534,48.741 176.164,44.492 176.690 M87.682 177.096 C 89.158 177.173,91.678 177.173,93.282 177.097 C 94.887 177.021,93.680 176.958,90.600 176.958 C 87.520 176.957,86.207 177.019,87.682 177.096 M40.400 177.800 C 39.716 178.625,41.137 178.635,42.224 177.813 C 42.970 177.248,42.959 177.225,41.949 177.213 C 41.371 177.206,40.674 177.470,40.400 177.800 M58.400 177.592 C 58.400 177.808,58.895 178.092,59.500 178.223 C 60.105 178.355,60.987 178.649,61.461 178.878 C 61.934 179.106,62.564 179.203,62.861 179.093 C 63.237 178.954,63.158 178.809,62.600 178.615 C 62.160 178.462,61.322 178.081,60.738 177.769 C 59.509 177.110,58.400 177.026,58.400 177.592 M78.590 177.616 C 78.448 177.845,78.003 177.928,77.600 177.800 C 77.197 177.672,76.737 177.779,76.577 178.037 C 76.360 178.388,76.883 178.434,78.644 178.219 C 81.382 177.885,82.499 177.200,80.304 177.200 C 79.503 177.200,78.731 177.387,78.590 177.616 M100.400 177.517 C 100.400 177.731,101.934 178.033,103.808 178.189 C 105.864 178.361,107.440 178.697,107.779 179.037 C 108.490 179.747,108.800 179.751,108.800 179.050 C 108.800 178.748,108.215 178.365,107.500 178.199 C 106.785 178.033,105.930 177.808,105.600 177.699 C 104.332 177.278,100.400 177.141,100.400 177.517 M36.000 179.846 C 34.570 180.629,33.269 181.500,33.109 181.782 C 32.950 182.064,32.275 182.521,31.609 182.796 C 30.944 183.072,30.400 183.556,30.400 183.873 C 30.400 184.269,30.964 184.044,32.200 183.157 C 33.190 182.446,34.000 181.685,34.000 181.466 C 34.000 181.246,34.111 181.178,34.248 181.314 C 34.384 181.450,34.757 181.300,35.076 180.981 C 35.396 180.661,35.969 180.400,36.351 180.400 C 36.732 180.400,37.655 179.950,38.400 179.400 C 40.374 177.943,39.011 178.197,36.000 179.846 M73.500 178.865 C 72.895 179.086,72.400 179.432,72.400 179.633 C 72.400 179.835,72.085 180.014,71.700 180.032 C 71.315 180.049,71.192 180.143,71.428 180.241 C 71.663 180.339,72.833 179.975,74.028 179.432 C 76.130 178.478,75.732 178.050,73.500 178.865 M63.600 179.557 C 63.600 179.754,63.885 180.024,64.233 180.157 C 65.136 180.504,65.202 180.471,64.945 179.800 C 64.699 179.159,63.600 178.960,63.600 179.557 M107.200 180.400 C 107.200 180.620,106.960 180.800,106.667 180.800 C 106.147 180.800,103.600 183.662,103.600 184.246 C 103.600 184.408,104.050 184.117,104.600 183.600 C 105.150 183.083,105.600 182.451,105.600 182.194 C 105.600 181.938,106.050 181.523,106.600 181.273 C 107.455 180.883,108.010 180.000,107.400 180.000 C 107.290 180.000,107.200 180.180,107.200 180.400 M67.613 181.700 C 67.606 182.085,67.675 182.400,67.767 182.400 C 67.859 182.400,68.219 182.509,68.567 182.643 C 68.940 182.786,69.200 182.676,69.200 182.376 C 69.200 182.096,69.083 181.984,68.940 182.127 C 68.796 182.270,68.442 182.075,68.152 181.694 C 67.653 181.036,67.625 181.036,67.613 181.700 M28.880 184.880 C 28.616 185.144,28.400 185.594,28.400 185.880 C 28.400 186.166,28.135 186.400,27.810 186.400 C 27.486 186.400,26.941 186.940,26.600 187.600 C 26.259 188.260,25.800 188.800,25.580 188.800 C 25.360 188.800,25.020 189.205,24.825 189.700 C 24.629 190.195,24.004 191.220,23.435 191.978 C 22.866 192.735,22.400 193.590,22.400 193.878 C 22.400 194.165,22.220 194.400,22.000 194.400 C 21.780 194.400,21.632 194.535,21.672 194.700 C 21.712 194.865,21.415 195.720,21.012 196.600 C 19.609 199.664,19.250 200.583,19.398 200.731 C 19.799 201.133,20.358 200.231,20.602 198.790 C 20.751 197.907,21.089 196.963,21.353 196.692 C 21.618 196.421,22.090 195.570,22.402 194.800 C 22.715 194.030,23.115 193.220,23.292 193.000 C 24.021 192.094,26.228 189.039,26.600 188.421 C 26.820 188.055,27.675 187.137,28.500 186.381 C 29.954 185.047,30.340 184.400,29.680 184.400 C 29.504 184.400,29.144 184.616,28.880 184.880 M101.693 186.400 C 101.418 186.840,101.298 187.200,101.425 187.200 C 101.725 187.200,102.800 186.127,102.800 185.829 C 102.800 185.320,102.162 185.649,101.693 186.400 M99.403 189.732 C 99.097 190.464,98.566 191.296,98.223 191.581 C 97.880 191.865,97.600 192.278,97.600 192.498 C 97.600 193.228,98.915 191.821,99.467 190.500 C 99.766 189.785,100.188 189.200,100.405 189.200 C 100.622 189.200,100.800 189.020,100.800 188.800 C 100.800 187.902,99.923 188.487,99.403 189.732 M185.032 195.300 C 186.555 196.895,188.430 198.993,189.200 199.961 C 189.970 200.930,191.005 202.153,191.500 202.679 C 191.995 203.206,192.400 203.718,192.400 203.817 C 192.400 203.917,193.030 204.875,193.800 205.947 C 194.570 207.019,195.200 208.040,195.200 208.216 C 195.200 208.393,195.438 208.821,195.730 209.169 C 198.252 212.177,199.810 222.013,198.092 224.091 C 197.861 224.371,197.350 225.404,196.958 226.387 C 196.565 227.369,195.964 228.531,195.622 228.969 C 194.697 230.152,190.415 234.400,190.148 234.400 C 190.020 234.400,189.148 234.919,188.209 235.552 C 187.270 236.186,185.804 236.932,184.951 237.210 C 184.098 237.488,183.303 237.863,183.185 238.043 C 182.004 239.846,165.013 239.821,163.600 238.015 C 163.490 237.874,162.567 237.447,161.549 237.065 C 160.531 236.683,159.378 236.018,158.987 235.586 C 158.596 235.154,158.079 234.800,157.838 234.800 C 156.646 234.798,151.534 228.639,150.779 226.296 C 150.479 225.363,150.046 224.472,149.817 224.315 C 149.224 223.909,149.260 214.059,149.855 213.685 C 150.105 213.528,150.572 212.770,150.893 212.000 C 151.528 210.475,155.023 206.800,155.837 206.800 C 156.115 206.800,156.658 206.485,157.043 206.100 C 157.925 205.218,166.014 205.043,166.300 205.900 C 166.392 206.175,166.649 206.400,166.873 206.400 C 169.320 206.400,172.215 209.365,172.550 212.215 C 173.006 216.096,174.146 217.600,176.629 217.600 C 178.850 217.600,179.600 217.286,179.600 216.357 C 179.600 215.941,179.780 215.600,180.000 215.600 C 181.752 215.600,179.840 210.523,177.102 207.905 L 175.120 206.010 175.399 203.605 C 175.553 202.282,175.807 201.200,175.964 201.200 C 176.120 201.200,176.483 200.284,176.770 199.165 C 177.248 197.301,181.025 192.400,181.983 192.400 C 182.138 192.400,183.510 193.705,185.032 195.300 M96.400 194.800 C 96.070 195.013,95.980 195.193,96.200 195.200 C 96.420 195.207,96.353 195.369,96.051 195.560 C 95.749 195.751,95.585 196.153,95.687 196.454 C 95.802 196.796,96.123 196.514,96.546 195.700 C 97.285 194.276,97.278 194.233,96.400 194.800 M93.664 199.819 C 93.409 200.379,93.206 200.964,93.213 201.119 C 93.232 201.522,94.800 199.583,94.800 199.156 C 94.800 198.431,94.114 198.832,93.664 199.819 M92.800 202.029 C 92.800 202.264,92.530 202.727,92.200 203.057 C 91.870 203.387,91.606 203.869,91.613 204.129 C 91.632 204.788,93.200 202.838,93.200 202.156 C 93.200 201.850,93.110 201.600,93.000 201.600 C 92.890 201.600,92.800 201.793,92.800 202.029 M18.561 203.555 C 18.415 204.470,18.139 205.314,17.947 205.432 C 17.490 205.715,17.498 207.200,17.957 207.200 C 18.332 207.200,19.317 202.384,19.006 202.073 C 18.907 201.974,18.707 202.641,18.561 203.555 M44.400 203.164 C 43.812 203.331,44.755 203.440,46.692 203.427 C 48.503 203.415,49.673 203.282,49.292 203.131 C 48.404 202.779,45.691 202.797,44.400 203.164 M50.400 204.074 C 50.400 204.403,50.853 204.878,51.406 205.130 C 51.959 205.382,52.618 206.041,52.870 206.594 C 53.327 207.598,54.000 207.958,54.000 207.200 C 54.000 206.980,53.820 206.800,53.600 206.800 C 53.380 206.800,53.200 206.607,53.200 206.371 C 53.200 205.943,52.954 205.669,51.288 204.238 C 50.573 203.625,50.400 203.593,50.400 204.074 M40.471 205.620 C 39.992 206.066,39.600 206.612,39.600 206.834 C 39.600 207.055,40.069 206.767,40.642 206.194 C 41.881 204.956,41.729 204.448,40.471 205.620 M307.380 205.928 C 307.171 206.109,305.724 206.463,304.163 206.716 C 297.833 207.742,287.553 214.630,281.888 221.641 C 281.069 222.654,280.400 223.689,280.400 223.941 C 280.400 224.194,280.253 224.400,280.074 224.400 C 279.676 224.400,278.400 227.001,278.400 227.814 C 278.400 228.136,278.233 228.400,278.028 228.400 C 276.716 228.400,276.456 238.467,277.744 239.409 C 278.105 239.672,278.400 240.061,278.400 240.273 C 278.400 240.484,279.268 241.049,280.328 241.529 C 282.316 242.427,285.200 242.706,285.200 242.000 C 285.200 241.780,285.556 241.600,285.992 241.600 C 287.113 241.600,290.056 240.371,290.975 239.519 C 291.402 239.123,291.921 238.800,292.130 238.800 C 292.338 238.800,292.925 238.350,293.435 237.800 C 294.696 236.440,295.069 236.543,294.876 238.199 C 294.658 240.065,295.079 241.600,295.808 241.600 C 296.133 241.600,296.400 241.780,296.400 242.000 C 296.400 242.497,299.761 242.529,300.705 242.041 C 301.087 241.844,302.165 241.366,303.100 240.980 C 304.035 240.594,304.800 240.159,304.800 240.013 C 304.800 239.867,305.430 239.448,306.200 239.081 C 306.970 238.713,307.600 238.242,307.600 238.033 C 307.600 237.825,307.946 237.544,308.369 237.410 C 309.768 236.966,311.645 234.698,311.518 233.606 C 311.336 232.048,309.863 232.075,308.055 233.670 C 304.593 236.722,302.796 237.622,302.802 236.300 C 302.807 235.298,303.647 232.800,303.979 232.800 C 304.167 232.800,304.654 231.991,305.060 231.001 C 305.467 230.012,305.908 229.202,306.039 229.201 C 306.171 229.201,306.618 228.435,307.034 227.500 C 307.450 226.565,308.107 225.451,308.495 225.025 C 308.883 224.598,309.200 224.026,309.200 223.753 C 309.200 223.480,309.477 222.981,309.815 222.643 C 310.153 222.305,310.695 221.392,311.020 220.614 C 311.345 219.836,311.761 219.200,311.945 219.200 C 312.129 219.200,312.613 218.390,313.022 217.400 C 313.430 216.410,313.907 215.600,314.082 215.600 C 314.257 215.600,314.400 215.330,314.400 215.000 C 314.400 214.523,313.819 214.400,311.571 214.400 C 308.522 214.400,308.139 214.598,307.027 216.747 C 305.805 219.111,301.643 225.019,300.100 226.581 C 299.605 227.082,299.200 227.665,299.200 227.877 C 299.200 228.742,292.418 234.666,290.829 235.190 C 289.933 235.486,289.200 235.879,289.200 236.064 C 289.200 236.860,286.340 236.377,285.382 235.418 C 283.832 233.868,284.411 227.132,286.252 225.291 C 286.553 224.990,286.800 224.531,286.801 224.271 C 286.801 224.012,287.341 223.170,288.000 222.400 C 288.659 221.630,289.199 220.886,289.199 220.747 C 289.201 220.223,295.028 214.726,296.777 213.597 C 297.780 212.950,298.801 212.252,299.047 212.044 C 301.588 209.903,309.866 209.998,314.321 212.221 C 316.782 213.448,318.800 212.286,318.800 209.642 C 318.800 207.917,317.517 206.897,314.943 206.576 C 313.759 206.428,312.691 206.148,312.571 205.953 C 312.296 205.508,307.891 205.487,307.380 205.928 M231.278 206.820 C 230.112 207.029,228.402 207.531,227.478 207.937 C 226.555 208.342,225.215 208.904,224.500 209.185 C 223.785 209.467,223.200 209.843,223.200 210.022 C 223.200 210.200,222.798 210.474,222.306 210.630 C 221.814 210.786,220.689 211.473,219.806 212.156 C 217.176 214.190,213.419 217.366,213.133 217.797 C 212.986 218.019,212.137 219.010,211.245 220.000 C 210.353 220.990,209.303 222.427,208.912 223.194 C 208.520 223.961,208.002 224.801,207.761 225.061 C 207.520 225.322,207.087 226.405,206.799 227.467 C 206.511 228.530,206.112 229.613,205.912 229.872 C 205.346 230.607,205.358 237.319,205.926 237.509 C 206.187 237.596,206.400 237.978,206.400 238.358 C 206.400 242.032,216.458 242.858,220.754 239.537 C 221.279 239.132,221.959 238.800,222.266 238.800 C 222.574 238.800,222.922 238.548,223.040 238.239 C 223.392 237.323,224.738 237.150,224.503 238.051 C 224.395 238.463,224.150 238.800,223.959 238.800 C 223.767 238.800,223.365 239.385,223.065 240.100 C 222.594 241.221,221.089 243.713,220.106 245.000 C 219.938 245.220,219.440 246.120,219.000 247.000 C 218.560 247.880,218.057 248.706,217.881 248.835 C 217.569 249.066,216.967 250.093,215.148 253.500 C 214.649 254.435,214.096 255.200,213.920 255.200 C 213.744 255.200,213.600 255.399,213.600 255.642 C 213.600 255.885,213.060 256.884,212.400 257.862 C 211.740 258.840,211.200 259.734,211.200 259.848 C 211.200 259.962,210.660 260.841,210.000 261.800 C 209.340 262.759,208.800 263.724,208.800 263.943 C 208.800 264.163,208.551 264.592,208.246 264.897 C 207.942 265.201,207.310 266.159,206.842 267.025 C 205.925 268.724,205.561 269.324,203.955 271.793 C 203.380 272.677,202.783 273.805,202.628 274.300 C 202.473 274.795,202.206 275.200,202.034 275.200 C 201.862 275.200,201.397 275.920,201.000 276.800 C 200.603 277.680,200.155 278.400,200.003 278.400 C 199.757 278.400,198.800 280.165,198.800 280.619 C 198.800 281.336,205.292 280.735,205.484 280.000 C 205.599 279.560,205.850 279.200,206.041 279.200 C 206.233 279.200,206.665 278.615,207.003 277.900 C 207.661 276.506,209.328 273.656,209.870 273.000 C 210.051 272.780,210.560 271.880,211.000 271.000 C 211.440 270.120,211.943 269.294,212.119 269.165 C 212.294 269.036,212.744 268.376,213.119 267.699 C 213.493 267.022,214.229 265.688,214.754 264.734 C 215.278 263.780,215.838 262.910,215.998 262.800 C 216.158 262.690,216.607 261.979,216.996 261.220 C 217.385 260.460,217.950 259.592,218.252 259.291 C 218.553 258.990,218.800 258.563,218.800 258.343 C 218.800 258.124,219.315 257.192,219.945 256.272 C 220.575 255.352,221.217 254.195,221.372 253.700 C 221.527 253.205,221.794 252.800,221.966 252.800 C 222.138 252.800,222.603 252.080,223.000 251.200 C 223.397 250.320,223.840 249.600,223.984 249.600 C 224.128 249.600,224.564 248.880,224.952 248.000 C 225.340 247.120,225.805 246.400,225.986 246.400 C 226.166 246.400,226.601 245.680,226.953 244.800 C 227.305 243.920,227.740 243.200,227.920 243.200 C 228.099 243.200,228.582 242.439,228.992 241.509 C 229.402 240.579,230.067 239.465,230.469 239.034 C 230.871 238.602,231.200 238.026,231.200 237.753 C 231.200 237.480,231.477 236.981,231.815 236.643 C 232.153 236.305,232.695 235.392,233.020 234.614 C 233.345 233.836,233.761 233.200,233.945 233.200 C 234.129 233.200,234.613 232.390,235.022 231.400 C 235.430 230.410,235.916 229.600,236.101 229.600 C 236.287 229.600,236.657 229.105,236.924 228.500 C 237.191 227.895,237.902 226.639,238.505 225.708 C 239.107 224.777,239.600 223.832,239.600 223.608 C 239.600 223.384,239.753 223.200,239.939 223.200 C 240.126 223.200,240.621 222.436,241.039 221.503 C 241.458 220.570,242.115 219.490,242.500 219.103 C 244.070 217.526,243.442 216.750,240.700 216.881 L 238.200 217.000 237.316 218.800 C 236.830 219.790,236.281 220.780,236.096 221.000 C 235.911 221.220,235.409 222.030,234.980 222.800 C 234.551 223.570,233.885 224.435,233.500 224.723 C 233.115 225.010,232.800 225.421,232.800 225.636 C 232.800 226.207,226.268 232.437,224.505 233.549 C 220.090 236.331,214.202 236.275,213.207 233.440 C 212.532 231.517,213.158 225.200,214.024 225.200 C 214.197 225.200,214.540 224.589,214.786 223.842 C 215.032 223.096,215.676 221.971,216.217 221.342 C 216.757 220.714,217.199 220.043,217.200 219.852 C 217.200 219.381,223.405 213.200,223.876 213.200 C 224.081 213.200,224.598 212.877,225.025 212.481 C 225.944 211.629,228.887 210.400,230.008 210.400 C 230.444 210.400,230.800 210.220,230.800 210.000 C 230.800 209.780,231.610 209.600,232.600 209.600 C 233.590 209.600,234.400 209.760,234.400 209.957 C 234.400 210.153,234.820 210.419,235.334 210.548 C 235.847 210.676,236.946 211.321,237.776 211.981 C 240.935 214.492,243.608 213.988,243.587 210.886 C 243.562 207.157,238.585 205.513,231.278 206.820 M254.100 207.065 C 253.165 207.396,252.400 207.812,252.400 207.990 C 252.400 208.168,251.958 208.424,251.417 208.560 C 250.876 208.696,249.982 209.210,249.429 209.703 C 248.876 210.197,247.699 211.130,246.812 211.777 C 245.213 212.944,244.894 213.698,245.556 214.743 C 245.964 215.386,248.223 215.023,248.698 214.237 C 248.864 213.962,249.585 213.398,250.300 212.982 C 251.015 212.567,251.600 212.107,251.600 211.960 C 251.600 211.524,253.180 211.244,253.423 211.637 C 253.650 212.005,252.589 214.167,251.724 215.097 C 251.463 215.378,251.022 216.237,250.744 217.004 C 250.466 217.772,250.104 218.400,249.938 218.400 C 249.773 218.400,249.260 219.165,248.799 220.100 C 247.806 222.113,246.959 223.593,245.485 225.892 C 244.888 226.823,244.400 227.768,244.400 227.992 C 244.400 228.216,244.244 228.400,244.054 228.400 C 243.864 228.400,243.382 229.255,242.983 230.300 C 242.584 231.345,242.030 232.427,241.753 232.705 C 241.085 233.373,240.646 236.438,240.923 238.503 C 241.625 243.734,250.296 242.563,257.225 236.300 C 258.173 235.444,258.400 235.424,258.400 236.200 C 258.400 236.530,258.220 236.800,258.000 236.800 C 257.433 236.800,257.502 240.542,258.080 241.120 C 259.236 242.276,265.523 241.303,267.129 239.721 C 267.419 239.434,267.815 239.200,268.008 239.200 C 268.201 239.200,268.827 238.795,269.400 238.300 C 269.973 237.805,271.319 236.680,272.392 235.800 C 274.193 234.322,275.102 232.400,274.000 232.400 C 273.780 232.400,273.600 232.130,273.600 231.800 C 273.600 230.783,272.800 231.122,270.454 233.132 C 269.214 234.195,267.885 235.179,267.500 235.320 C 267.115 235.460,266.800 235.761,266.800 235.987 C 266.800 236.214,266.350 236.400,265.800 236.400 C 265.250 236.400,264.800 236.228,264.800 236.019 C 264.800 235.532,265.705 233.463,266.033 233.200 C 266.170 233.090,266.617 232.280,267.028 231.400 C 267.438 230.520,268.095 229.451,268.487 229.025 C 268.879 228.598,269.200 228.026,269.200 227.753 C 269.200 227.480,269.477 226.981,269.815 226.643 C 270.153 226.305,270.695 225.392,271.020 224.614 C 271.345 223.836,271.761 223.200,271.945 223.200 C 272.128 223.200,272.616 222.435,273.028 221.500 C 273.441 220.565,273.952 219.678,274.165 219.529 C 274.573 219.244,275.399 217.785,276.843 214.800 C 277.322 213.810,277.858 212.906,278.034 212.790 C 279.471 211.851,279.369 207.046,277.904 206.653 C 275.803 206.090,270.400 207.029,270.400 207.957 C 270.400 208.112,269.812 208.452,269.093 208.712 C 266.073 209.804,263.045 213.502,264.214 214.671 C 264.852 215.309,267.200 214.758,267.200 213.970 C 267.200 213.787,267.875 213.321,268.700 212.934 C 269.525 212.547,270.440 211.997,270.732 211.711 C 272.383 210.103,271.505 213.724,269.595 216.408 C 269.158 217.021,268.800 217.650,268.800 217.804 C 268.800 217.958,268.395 218.594,267.900 219.217 C 267.405 219.840,266.370 221.210,265.600 222.262 C 264.830 223.314,263.930 224.490,263.600 224.875 C 263.270 225.261,262.550 226.124,262.000 226.792 C 259.844 229.412,256.096 233.200,255.660 233.200 C 255.407 233.200,255.200 233.367,255.200 233.572 C 255.200 234.871,249.640 237.328,248.040 236.736 C 247.091 236.386,246.989 233.881,247.897 233.232 C 248.076 233.105,248.572 232.190,249.000 231.200 C 249.428 230.210,249.926 229.294,250.108 229.165 C 250.289 229.036,250.744 228.376,251.119 227.699 C 251.493 227.022,252.229 225.688,252.754 224.734 C 253.278 223.780,253.832 222.910,253.984 222.800 C 254.136 222.690,254.607 221.975,255.030 221.212 C 255.454 220.449,256.115 219.470,256.500 219.037 C 256.885 218.603,257.200 218.026,257.200 217.753 C 257.200 217.480,257.432 217.019,257.715 216.729 C 257.999 216.438,258.565 215.480,258.974 214.600 C 259.383 213.720,259.891 212.888,260.101 212.750 C 261.169 212.054,260.948 207.236,259.828 206.811 C 258.347 206.248,256.131 206.346,254.100 207.065 M123.200 207.400 C 123.200 207.730,123.380 208.000,123.600 208.000 C 123.820 208.000,124.000 207.730,124.000 207.400 C 124.000 207.070,123.820 206.800,123.600 206.800 C 123.380 206.800,123.200 207.070,123.200 207.400 M53.757 208.633 C 53.891 208.981,54.000 209.341,54.000 209.433 C 54.000 209.525,54.163 209.600,54.363 209.600 C 54.562 209.600,54.631 209.240,54.516 208.800 C 54.401 208.360,54.128 208.000,53.911 208.000 C 53.693 208.000,53.624 208.285,53.757 208.633 M5.525 211.048 C 5.309 214.429,5.592 218.400,6.048 218.400 C 6.242 218.400,6.400 216.150,6.400 213.400 C 6.400 208.128,5.811 206.547,5.525 211.048 M17.206 211.276 C 17.211 212.795,17.323 213.229,17.600 212.800 C 18.110 212.012,18.110 209.715,17.600 209.400 C 17.352 209.247,17.202 209.961,17.206 211.276 M37.600 214.224 C 37.600 216.358,37.757 217.950,37.956 217.827 C 38.429 217.535,38.440 210.400,37.968 210.400 C 37.765 210.400,37.600 212.121,37.600 214.224 M87.501 215.666 C 87.970 217.457,88.795 218.752,88.798 217.700 C 88.799 217.205,88.626 216.800,88.413 216.800 C 88.199 216.800,88.118 216.559,88.231 216.264 C 88.344 215.969,88.172 215.509,87.850 215.241 C 87.356 214.832,87.301 214.899,87.501 215.666 M17.261 217.600 C 17.253 219.366,17.325 219.615,17.627 218.861 C 17.857 218.287,17.861 217.433,17.637 216.661 C 17.307 215.521,17.271 215.610,17.261 217.600 M52.093 216.400 C 51.818 216.840,51.731 217.200,51.900 217.200 C 52.069 217.200,52.432 216.840,52.707 216.400 C 52.982 215.960,53.069 215.600,52.900 215.600 C 52.731 215.600,52.368 215.960,52.093 216.400 M50.080 219.280 C 49.516 219.844,49.453 220.400,49.953 220.400 C 50.148 220.400,50.401 220.040,50.516 219.600 C 50.760 218.666,50.722 218.638,50.080 219.280 M123.200 220.000 C 123.200 220.440,123.380 220.800,123.600 220.800 C 123.820 220.800,124.000 220.440,124.000 220.000 C 124.000 219.560,123.820 219.200,123.600 219.200 C 123.380 219.200,123.200 219.560,123.200 220.000 M48.101 221.840 C 47.606 222.404,47.411 222.796,47.667 222.711 C 48.098 222.567,49.480 220.791,49.149 220.807 C 49.067 220.811,48.595 221.276,48.101 221.840 M18.010 221.800 C 17.971 222.020,17.878 222.515,17.805 222.900 C 17.731 223.285,17.835 223.600,18.035 223.600 C 18.236 223.600,18.400 223.900,18.400 224.267 C 18.400 224.633,18.493 224.841,18.606 224.727 C 18.720 224.614,18.648 223.819,18.446 222.960 C 18.245 222.102,18.049 221.580,18.010 221.800 M35.962 224.246 C 35.498 224.805,35.527 224.873,36.180 224.746 C 36.594 224.666,37.009 224.375,37.100 224.100 C 37.338 223.386,36.596 223.482,35.962 224.246 M31.500 225.500 C 29.377 226.047,28.392 226.800,29.800 226.800 C 30.130 226.800,30.400 226.609,30.400 226.376 C 30.400 226.143,30.589 226.070,30.820 226.212 C 31.051 226.355,31.816 226.208,32.520 225.885 C 33.224 225.562,34.070 225.200,34.400 225.080 C 35.624 224.638,33.859 224.893,31.500 225.500 M43.800 225.600 C 43.402 226.040,43.244 226.400,43.449 226.400 C 43.654 226.400,44.130 226.040,44.507 225.600 C 44.884 225.160,45.042 224.800,44.858 224.800 C 44.674 224.800,44.198 225.160,43.800 225.600 M18.902 226.400 C 19.028 226.866,19.773 227.007,22.232 227.030 L 25.400 227.060 22.412 226.911 C 20.705 226.825,19.277 226.555,19.081 226.281 C 18.840 225.941,18.787 225.976,18.902 226.400 M92.533 229.371 C 92.785 229.905,93.055 230.278,93.132 230.201 C 93.381 229.953,92.758 228.400,92.411 228.400 C 92.226 228.400,92.281 228.837,92.533 229.371 M36.400 229.557 C 36.400 229.827,36.232 229.944,36.028 229.817 C 35.823 229.691,35.542 229.770,35.404 229.993 C 35.266 230.217,35.423 230.400,35.753 230.400 C 36.424 230.400,37.010 229.677,36.640 229.307 C 36.508 229.175,36.400 229.287,36.400 229.557 M32.200 230.800 C 31.181 231.238,32.232 231.238,33.600 230.800 C 34.404 230.543,34.443 230.477,33.800 230.468 C 33.360 230.462,32.640 230.611,32.200 230.800 M93.206 231.014 C 93.217 231.703,93.948 232.585,94.254 232.279 C 94.418 232.115,94.248 231.677,93.876 231.305 C 93.504 230.933,93.203 230.802,93.206 231.014 M28.400 231.600 C 28.400 231.820,28.659 232.000,28.976 232.000 C 29.293 232.000,29.664 231.820,29.800 231.600 C 29.936 231.380,29.677 231.200,29.224 231.200 C 28.771 231.200,28.400 231.380,28.400 231.600 M25.400 232.000 C 25.251 232.242,25.756 232.389,26.676 232.372 C 27.893 232.349,28.039 232.275,27.400 232.000 C 26.301 231.528,25.692 231.528,25.400 232.000 M95.296 235.500 C 95.559 236.215,95.916 236.800,96.088 236.800 C 96.596 236.800,96.433 236.265,95.599 235.200 L 94.816 234.200 95.296 235.500 M70.353 244.272 C 69.896 244.835,69.895 244.896,70.345 244.626 C 70.679 244.425,71.019 244.506,71.223 244.837 C 71.406 245.134,71.642 245.292,71.746 245.188 C 71.850 245.084,71.703 244.682,71.420 244.295 C 70.936 243.633,70.872 243.632,70.353 244.272 M104.900 246.687 C 105.505 246.778,106.000 247.021,106.000 247.227 C 106.000 247.432,106.270 247.600,106.600 247.600 C 106.930 247.600,107.200 247.330,107.200 247.000 C 107.200 246.551,106.771 246.415,105.500 246.460 C 104.306 246.502,104.128 246.570,104.900 246.687 M73.883 247.988 C 74.254 248.421,74.638 248.696,74.736 248.598 C 74.974 248.359,73.995 247.200,73.555 247.200 C 73.364 247.200,73.511 247.555,73.883 247.988 M57.800 251.200 L 56.600 251.505 57.676 251.553 C 58.268 251.579,58.864 251.420,59.000 251.200 C 59.136 250.980,59.192 250.821,59.124 250.847 C 59.056 250.873,58.460 251.032,57.800 251.200 M46.000 251.900 C 45.999 252.236,54.377 252.156,54.716 251.817 C 54.836 251.698,52.923 251.600,50.467 251.600 C 48.010 251.600,46.000 251.735,46.000 251.900 M83.600 253.205 C 83.930 253.416,84.725 253.591,85.367 253.594 C 86.914 253.602,86.577 253.371,84.600 253.068 C 83.510 252.901,83.191 252.945,83.600 253.205 M90.900 253.476 C 91.285 253.576,91.915 253.576,92.300 253.476 C 92.685 253.375,92.370 253.293,91.600 253.293 C 90.830 253.293,90.515 253.375,90.900 253.476 M57.200 271.992 C 57.200 272.217,57.770 272.400,58.467 272.400 C 59.923 272.400,59.870 272.225,58.300 271.849 C 57.647 271.692,57.200 271.750,57.200 271.992 M71.000 272.000 C 70.291 272.305,70.325 272.347,71.300 272.372 C 71.905 272.387,72.400 272.220,72.400 272.000 C 72.400 271.531,72.093 271.531,71.000 272.000 " stroke="none" fill="url(#skyGradient)" fill-rule="evenodd"></path><path id="path1" d="M59.029 151.248 C 56.625 151.432,54.555 151.748,54.429 151.949 C 54.303 152.150,52.683 152.599,50.829 152.948 C 48.975 153.297,47.355 153.744,47.229 153.941 C 47.103 154.138,46.370 154.427,45.600 154.583 C 43.651 154.977,41.600 155.711,41.600 156.015 C 41.600 156.155,40.610 156.607,39.400 157.018 C 38.190 157.429,37.200 157.906,37.200 158.077 C 37.200 158.249,36.570 158.652,35.800 158.974 C 35.030 159.296,34.400 159.728,34.400 159.935 C 34.400 160.142,33.809 160.422,33.087 160.557 C 32.365 160.693,31.515 161.163,31.199 161.602 C 30.882 162.041,30.393 162.400,30.112 162.400 C 29.830 162.400,29.600 162.568,29.600 162.773 C 29.600 162.978,29.195 163.274,28.700 163.430 C 28.205 163.587,27.565 164.049,27.277 164.457 C 26.990 164.866,26.495 165.200,26.177 165.200 C 25.860 165.200,25.600 165.440,25.600 165.732 C 25.600 166.025,25.151 166.505,24.603 166.799 C 24.054 167.092,23.330 167.753,22.993 168.266 C 22.657 168.780,22.110 169.200,21.778 169.200 C 21.446 169.200,21.058 169.515,20.916 169.900 C 20.773 170.285,19.969 171.275,19.128 172.100 C 18.288 172.924,17.600 173.703,17.600 173.830 C 17.600 173.957,17.060 174.602,16.400 175.262 C 15.740 175.922,15.090 176.898,14.957 177.431 C 14.823 177.964,14.466 178.400,14.164 178.400 C 13.862 178.400,13.502 178.850,13.364 179.400 C 13.226 179.950,12.953 180.400,12.757 180.400 C 12.560 180.400,12.400 180.670,12.400 181.000 C 12.400 181.330,12.257 181.600,12.082 181.600 C 11.907 181.600,11.434 182.399,11.031 183.377 C 10.628 184.354,10.061 185.244,9.771 185.356 C 9.481 185.467,9.124 186.200,8.976 186.985 C 8.829 187.769,8.503 188.544,8.251 188.706 C 7.739 189.035,6.395 192.633,6.398 193.667 C 6.399 194.033,6.229 194.393,6.019 194.467 C 5.593 194.616,4.400 198.879,4.400 200.251 C 4.400 200.736,4.221 201.193,4.001 201.267 C 2.400 201.802,2.196 227.339,3.780 228.922 C 4.056 229.199,4.405 230.320,4.555 231.413 C 4.915 234.048,5.698 236.800,6.087 236.800 C 6.259 236.800,6.400 237.239,6.400 237.776 C 6.400 238.313,6.580 238.864,6.800 239.000 C 7.020 239.136,7.200 239.584,7.200 239.995 C 7.200 240.406,7.456 240.999,7.768 241.311 C 8.081 241.624,8.540 242.636,8.789 243.560 C 9.038 244.485,9.502 245.341,9.821 245.463 C 10.139 245.586,10.400 245.916,10.400 246.197 C 10.400 246.798,11.403 248.814,11.874 249.160 C 12.323 249.491,13.175 250.855,13.458 251.700 C 13.588 252.085,13.848 252.400,14.036 252.400 C 14.225 252.400,14.670 252.962,15.025 253.649 C 15.380 254.336,16.285 255.512,17.036 256.262 C 17.786 257.013,18.402 257.756,18.405 257.913 C 18.414 258.389,23.455 263.200,23.945 263.200 C 24.195 263.200,24.400 263.440,24.400 263.732 C 24.400 264.025,24.864 264.513,25.431 264.817 C 25.998 265.120,26.634 265.690,26.845 266.084 C 27.056 266.478,27.447 266.800,27.714 266.800 C 27.981 266.801,28.723 267.251,29.362 267.800 C 30.001 268.350,30.631 268.800,30.762 268.800 C 30.893 268.801,31.523 269.251,32.162 269.800 C 32.801 270.350,33.532 270.800,33.787 270.800 C 34.041 270.800,34.598 271.121,35.025 271.513 C 35.874 272.294,38.462 273.600,39.160 273.600 C 39.402 273.600,39.600 273.746,39.600 273.924 C 39.600 274.103,40.680 274.572,42.000 274.968 C 43.320 275.363,44.400 275.823,44.400 275.989 C 44.400 276.308,49.301 277.603,50.500 277.601 C 50.885 277.600,51.200 277.743,51.200 277.917 C 51.200 278.513,55.793 279.238,61.100 279.479 C 64.015 279.611,66.400 279.873,66.400 280.060 C 66.400 280.247,66.670 280.400,67.000 280.400 C 67.330 280.400,67.600 280.247,67.600 280.060 C 67.600 279.873,69.985 279.611,72.900 279.479 C 78.207 279.238,82.800 278.513,82.800 277.917 C 82.800 277.743,83.115 277.600,83.500 277.601 C 84.699 277.603,89.600 276.308,89.600 275.989 C 89.600 275.823,90.680 275.363,92.000 274.968 C 93.320 274.572,94.400 274.127,94.400 273.979 C 94.400 273.830,95.250 273.384,96.289 272.987 C 97.327 272.591,98.531 271.936,98.964 271.533 C 99.397 271.130,99.959 270.800,100.213 270.800 C 100.468 270.800,101.199 270.350,101.838 269.800 C 102.477 269.251,103.107 268.801,103.238 268.800 C 103.369 268.800,103.999 268.350,104.638 267.800 C 105.277 267.251,106.019 266.801,106.286 266.800 C 106.553 266.800,106.944 266.478,107.155 266.084 C 107.366 265.690,108.002 265.120,108.569 264.817 C 109.136 264.513,109.600 264.025,109.600 263.732 C 109.600 263.440,109.825 263.198,110.100 263.196 C 110.568 263.193,115.600 258.286,115.600 257.834 C 115.600 257.720,116.214 257.013,116.964 256.262 C 117.715 255.512,118.620 254.336,118.975 253.649 C 119.330 252.962,119.775 252.400,119.964 252.400 C 120.152 252.400,120.412 252.085,120.542 251.700 C 120.800 250.929,121.559 249.700,122.237 248.951 C 122.478 248.685,122.917 247.868,123.214 247.134 C 123.510 246.400,123.988 245.656,124.276 245.481 C 124.563 245.305,125.000 244.360,125.247 243.381 C 125.493 242.401,125.837 241.600,126.010 241.600 C 126.184 241.600,126.646 240.565,127.038 239.300 C 127.430 238.035,127.852 236.910,127.977 236.800 C 128.410 236.419,129.138 233.790,129.417 231.600 C 129.571 230.390,129.845 229.306,130.026 229.190 C 131.642 228.161,131.697 202.684,130.086 201.642 C 129.880 201.509,129.584 200.500,129.428 199.400 C 129.053 196.745,128.354 194.400,127.937 194.400 C 127.752 194.400,127.600 194.109,127.600 193.754 C 127.600 192.821,126.265 189.200,125.922 189.200 C 125.762 189.200,125.431 188.435,125.187 187.500 C 124.942 186.565,124.514 185.620,124.236 185.400 C 123.957 185.180,123.392 184.280,122.980 183.400 C 122.568 182.520,121.977 181.541,121.668 181.224 C 121.359 180.908,120.929 180.143,120.714 179.524 C 120.498 178.906,120.089 178.400,119.804 178.400 C 119.520 178.400,119.177 177.964,119.043 177.431 C 118.910 176.898,118.260 175.922,117.600 175.262 C 116.940 174.602,116.400 173.957,116.400 173.830 C 116.400 173.703,115.712 172.924,114.872 172.100 C 114.031 171.275,113.227 170.285,113.084 169.900 C 112.942 169.515,112.554 169.200,112.222 169.200 C 111.890 169.200,111.343 168.780,111.007 168.266 C 110.670 167.753,109.946 167.092,109.397 166.799 C 108.849 166.505,108.400 166.025,108.400 165.732 C 108.400 165.440,108.140 165.200,107.823 165.200 C 107.505 165.200,107.010 164.866,106.723 164.457 C 106.435 164.049,105.795 163.587,105.300 163.430 C 104.805 163.274,104.400 162.978,104.400 162.773 C 104.400 162.568,104.170 162.400,103.888 162.400 C 103.607 162.400,103.117 162.040,102.800 161.600 C 102.483 161.160,101.912 160.800,101.532 160.800 C 101.151 160.800,100.696 160.575,100.520 160.300 C 100.105 159.652,98.575 158.800,97.825 158.800 C 97.503 158.800,97.096 158.565,96.920 158.279 C 96.744 157.992,95.700 157.424,94.600 157.015 C 93.500 156.607,92.510 156.157,92.400 156.014 C 92.114 155.644,90.040 154.897,88.400 154.575 C 87.630 154.423,86.897 154.138,86.771 153.941 C 86.645 153.744,85.025 153.297,83.171 152.948 C 81.317 152.599,79.703 152.159,79.584 151.969 C 79.027 151.081,66.797 150.652,59.029 151.248 M70.000 154.200 C 70.000 154.610,70.444 154.816,71.400 154.850 C 72.170 154.878,72.935 154.932,73.100 154.971 C 73.265 155.010,74.615 155.182,76.100 155.353 C 77.585 155.524,78.800 155.805,78.800 155.979 C 78.800 156.152,79.745 156.501,80.900 156.754 C 82.055 157.006,83.270 157.286,83.600 157.376 C 83.930 157.465,84.526 157.553,84.924 157.569 C 85.322 157.586,85.561 157.740,85.455 157.910 C 85.350 158.081,86.329 158.561,87.632 158.977 C 88.934 159.393,90.000 159.903,90.000 160.110 C 90.000 160.316,90.270 160.382,90.600 160.255 C 90.930 160.129,91.200 160.219,91.200 160.455 C 91.200 160.698,91.500 160.770,91.888 160.622 C 92.266 160.476,92.446 160.488,92.287 160.647 C 92.023 160.911,94.767 162.803,95.490 162.856 C 95.661 162.869,96.634 163.491,97.654 164.239 C 98.673 164.988,99.687 165.600,99.908 165.600 C 100.128 165.600,100.603 166.050,100.963 166.600 C 101.324 167.150,101.816 167.600,102.056 167.600 C 102.576 167.600,109.200 174.310,109.200 174.837 C 109.200 175.037,109.470 175.200,109.800 175.200 C 110.130 175.200,110.400 175.457,110.400 175.771 C 110.400 176.085,110.844 176.691,111.386 177.118 C 111.929 177.545,112.279 177.987,112.165 178.101 C 112.051 178.215,112.462 178.706,113.079 179.191 C 113.696 179.676,114.128 180.101,114.041 180.136 C 113.728 180.262,115.624 183.600,116.008 183.600 C 116.224 183.600,116.376 183.735,116.346 183.900 C 116.248 184.440,117.713 187.600,118.061 187.600 C 118.247 187.600,118.400 187.930,118.400 188.333 C 118.400 188.737,118.535 189.202,118.700 189.367 C 118.865 189.532,119.009 189.787,119.020 189.933 C 119.073 190.659,119.691 192.000,119.972 192.000 C 120.147 192.000,120.520 193.080,120.800 194.400 C 121.080 195.720,121.440 196.800,121.600 196.800 C 121.759 196.800,121.840 197.251,121.780 197.802 C 121.720 198.353,121.813 198.716,121.987 198.608 C 122.281 198.426,123.200 203.435,123.200 205.216 C 123.200 205.647,123.425 206.014,123.700 206.032 C 124.055 206.054,124.042 206.126,123.655 206.280 C 123.355 206.399,123.265 206.610,123.455 206.748 C 123.646 206.887,123.711 209.745,123.601 213.101 C 123.490 216.456,123.535 219.201,123.700 219.201 C 123.865 219.200,124.000 219.560,124.000 220.000 C 124.000 220.440,123.859 220.800,123.686 220.800 C 123.438 220.800,122.678 224.746,122.322 227.882 C 122.291 228.148,122.139 228.286,121.983 228.190 C 121.827 228.093,121.562 228.776,121.394 229.707 C 120.852 232.708,120.790 232.937,120.197 234.126 C 119.876 234.770,119.728 235.483,119.868 235.710 C 120.009 235.938,119.935 236.007,119.704 235.865 C 119.335 235.636,118.926 236.531,118.564 238.360 C 118.503 238.668,118.221 239.063,117.938 239.238 C 117.655 239.413,117.542 239.675,117.687 239.821 C 117.833 239.966,117.603 240.460,117.176 240.918 C 116.749 241.376,116.400 241.987,116.400 242.275 C 116.400 242.564,116.255 242.800,116.077 242.800 C 115.899 242.800,115.432 243.529,115.040 244.419 C 114.647 245.310,113.937 246.445,113.463 246.942 C 112.988 247.440,112.330 248.267,112.000 248.781 C 111.670 249.295,110.725 250.511,109.900 251.482 C 109.075 252.454,108.400 253.448,108.400 253.691 C 108.400 253.934,108.309 254.042,108.197 253.930 C 108.085 253.819,107.042 254.644,105.878 255.764 C 102.809 258.718,100.826 260.366,99.535 261.034 C 98.911 261.356,98.400 261.797,98.400 262.014 C 98.400 262.230,97.680 262.695,96.800 263.047 C 95.920 263.399,95.200 263.833,95.200 264.012 C 95.200 264.191,94.557 264.550,93.772 264.809 C 92.987 265.068,92.254 265.516,92.143 265.804 C 91.976 266.240,91.357 266.528,89.600 266.987 C 88.479 267.280,87.358 267.772,87.179 268.050 C 87.057 268.239,85.756 268.689,84.289 269.051 C 82.821 269.414,81.698 269.835,81.793 269.988 C 81.887 270.141,81.748 270.276,81.482 270.288 C 81.047 270.307,80.562 270.395,77.786 270.956 C 77.338 271.047,75.943 271.249,74.686 271.407 C 73.429 271.564,72.400 271.851,72.400 272.046 C 72.400 272.241,68.980 272.400,64.800 272.400 C 60.620 272.400,57.200 272.241,57.200 272.046 C 57.200 271.851,56.255 271.564,55.100 271.407 C 53.945 271.250,52.640 271.051,52.200 270.963 C 51.760 270.876,50.686 270.706,49.814 270.587 C 48.942 270.467,48.126 270.204,48.001 270.002 C 47.877 269.800,46.724 269.362,45.440 269.027 C 44.156 268.693,42.864 268.219,42.570 267.975 C 42.276 267.731,41.819 267.664,41.556 267.827 C 41.270 268.004,41.181 267.954,41.335 267.704 C 41.482 267.468,41.117 267.169,40.497 267.018 C 39.894 266.871,38.729 266.312,37.909 265.776 C 37.088 265.239,36.165 264.800,35.858 264.800 C 35.550 264.800,35.070 264.526,34.792 264.190 C 34.514 263.855,34.207 263.660,34.110 263.757 C 34.013 263.854,33.588 263.588,33.167 263.167 C 32.745 262.745,32.119 262.400,31.776 262.400 C 31.433 262.400,31.252 262.240,31.373 262.044 C 31.494 261.848,30.954 261.384,30.172 261.014 C 29.391 260.643,28.653 260.083,28.533 259.770 C 28.413 259.456,28.109 259.199,27.857 259.197 C 26.977 259.191,17.200 248.980,17.200 248.067 C 17.200 247.832,16.885 247.456,16.500 247.232 C 16.115 247.008,15.980 246.816,16.200 246.806 C 16.420 246.796,16.330 246.617,16.000 246.408 C 15.670 246.200,15.394 245.888,15.386 245.715 C 15.365 245.252,14.437 243.652,13.669 242.755 C 13.301 242.326,12.991 241.845,12.980 241.687 C 12.914 240.716,12.278 239.628,11.909 239.856 C 11.661 240.009,11.591 239.938,11.745 239.689 C 11.892 239.451,11.830 239.142,11.607 239.004 C 11.383 238.866,11.200 238.441,11.200 238.061 C 11.200 237.680,10.828 236.656,10.373 235.785 C 9.919 234.913,9.473 233.853,9.383 233.429 C 9.293 233.006,9.080 232.556,8.909 232.429 C 8.739 232.303,8.542 231.483,8.471 230.606 C 8.400 229.729,8.152 228.894,7.919 228.750 C 7.686 228.606,7.222 226.264,6.887 223.544 C 6.552 220.825,6.106 218.487,5.896 218.350 C 5.307 217.964,5.425 208.755,6.024 208.385 C 6.358 208.179,6.431 207.555,6.253 206.441 C 6.091 205.428,6.145 204.800,6.395 204.800 C 6.618 204.800,6.800 204.304,6.800 203.697 C 6.800 203.091,6.965 202.021,7.166 201.319 C 7.419 200.437,7.393 199.998,7.083 199.894 C 6.816 199.805,7.002 199.351,7.545 198.772 C 8.158 198.118,8.405 197.448,8.300 196.721 C 8.215 196.128,8.279 195.725,8.443 195.827 C 8.607 195.928,8.947 195.018,9.199 193.805 C 9.451 192.592,9.803 191.600,9.982 191.600 C 10.532 191.600,10.792 189.873,10.327 189.312 C 9.986 188.901,10.031 188.837,10.527 189.027 C 10.983 189.202,11.241 188.975,11.427 188.236 C 11.570 187.666,11.818 187.200,11.979 187.200 C 12.140 187.200,12.519 186.451,12.821 185.536 C 13.123 184.621,13.719 183.548,14.146 183.150 C 14.823 182.519,14.850 182.338,14.361 181.714 C 13.853 181.068,13.865 181.051,14.484 181.535 C 15.084 182.006,15.198 181.945,15.426 181.038 C 15.569 180.470,15.817 180.087,15.979 180.187 C 16.140 180.287,16.734 179.471,17.300 178.374 C 17.871 177.265,18.418 176.607,18.532 176.890 C 18.664 177.220,18.748 177.164,18.768 176.733 C 18.786 176.367,19.295 175.697,19.900 175.246 C 20.505 174.795,20.768 174.420,20.484 174.413 C 19.953 174.400,20.035 174.253,21.481 172.634 C 21.745 172.338,21.835 171.955,21.681 171.783 C 21.526 171.612,21.601 171.586,21.847 171.726 C 22.407 172.046,23.709 170.662,23.301 170.181 C 23.135 169.986,23.299 170.054,23.664 170.333 C 24.178 170.724,24.396 170.730,24.626 170.358 C 24.815 170.053,24.755 169.981,24.462 170.162 C 24.208 170.319,24.000 170.267,24.000 170.047 C 24.000 169.544,24.544 169.203,25.698 168.982 C 26.768 168.777,27.701 167.640,27.413 166.891 C 27.301 166.598,27.387 166.468,27.605 166.603 C 27.822 166.737,28.000 166.646,28.000 166.400 C 28.000 166.154,28.183 166.066,28.407 166.204 C 28.630 166.342,28.686 166.668,28.530 166.928 C 28.360 167.211,28.511 167.185,28.908 166.864 C 29.271 166.569,29.675 165.993,29.805 165.584 C 29.935 165.175,30.277 164.931,30.564 165.042 C 30.852 165.152,31.634 164.783,32.302 164.221 C 32.969 163.660,33.650 163.200,33.814 163.200 C 33.978 163.200,34.370 162.885,34.686 162.500 C 35.001 162.115,35.134 162.043,34.981 162.340 C 34.762 162.767,34.860 162.789,35.452 162.447 C 37.087 161.500,37.676 160.846,37.363 160.327 C 37.105 159.898,37.163 159.894,37.673 160.307 C 38.369 160.871,39.600 160.575,39.600 159.842 C 39.600 159.583,39.915 159.335,40.300 159.291 C 42.512 159.041,44.586 158.288,45.300 157.475 C 45.685 157.036,46.000 156.891,46.000 157.153 C 46.000 157.499,46.211 157.515,46.774 157.214 C 47.199 156.986,48.054 156.797,48.674 156.794 C 49.564 156.789,49.674 156.703,49.200 156.382 C 48.755 156.080,48.884 156.042,49.700 156.231 C 50.392 156.392,50.800 156.322,50.800 156.043 C 50.800 155.800,51.340 155.600,52.000 155.600 C 52.660 155.600,53.200 155.456,53.200 155.280 C 53.200 155.104,53.830 155.034,54.600 155.124 C 55.945 155.281,56.561 154.693,55.500 154.265 C 55.225 154.154,55.394 154.049,55.876 154.032 C 56.358 154.014,56.864 154.180,57.000 154.400 C 57.284 154.860,60.024 154.953,59.953 154.500 C 59.927 154.335,59.927 154.065,59.953 153.900 C 60.054 153.258,70.000 153.555,70.000 154.200 M44.725 177.198 C 44.134 177.373,43.561 177.428,43.451 177.318 C 43.341 177.208,42.840 177.407,42.337 177.759 C 41.834 178.112,41.047 178.400,40.589 178.400 C 40.130 178.400,39.145 178.850,38.400 179.400 C 37.655 179.950,36.732 180.400,36.351 180.400 C 35.969 180.400,35.396 180.661,35.076 180.981 C 34.757 181.300,34.384 181.450,34.248 181.314 C 34.111 181.178,34.000 181.246,34.000 181.466 C 34.000 181.685,33.209 182.432,32.243 183.126 C 30.329 184.501,26.800 187.811,26.800 188.232 C 26.800 188.680,24.259 191.405,23.935 191.305 C 23.767 191.252,23.723 191.454,23.837 191.753 C 23.952 192.052,23.789 192.553,23.476 192.867 C 23.162 193.181,22.779 193.837,22.624 194.324 C 22.469 194.812,22.188 195.116,21.999 194.999 C 21.810 194.883,21.525 194.998,21.366 195.255 C 21.185 195.548,21.250 195.616,21.538 195.438 C 21.817 195.266,22.000 195.417,22.000 195.819 C 22.000 196.257,21.787 196.404,21.379 196.247 C 21.038 196.116,20.847 196.153,20.956 196.329 C 21.253 196.809,20.366 200.141,19.819 200.600 C 19.557 200.820,19.122 202.344,18.853 203.988 C 18.584 205.631,18.201 207.076,18.003 207.198 C 17.805 207.321,17.641 208.586,17.639 210.011 C 17.637 211.435,17.617 213.410,17.596 214.400 C 17.485 219.457,17.628 222.559,17.949 222.060 C 18.185 221.693,18.385 222.144,18.571 223.460 C 19.078 227.048,18.659 226.800,24.227 226.800 C 27.622 226.800,29.200 226.658,29.200 226.353 C 29.200 226.104,29.553 225.999,30.001 226.116 C 30.441 226.231,30.719 226.193,30.619 226.030 C 30.518 225.868,31.604 225.491,33.030 225.194 C 34.457 224.896,35.821 224.416,36.061 224.126 C 36.301 223.837,36.791 223.594,37.149 223.587 C 38.712 223.557,39.363 222.522,38.866 220.861 C 38.610 220.007,38.400 218.912,38.400 218.430 C 38.400 217.947,38.220 217.664,38.000 217.800 C 37.744 217.958,37.600 216.671,37.600 214.224 C 37.600 212.062,37.766 210.400,37.982 210.400 C 38.192 210.400,38.482 209.770,38.626 209.000 C 38.771 208.230,39.029 207.600,39.201 207.600 C 39.373 207.600,39.626 207.150,39.764 206.600 C 39.902 206.050,40.158 205.600,40.332 205.600 C 40.507 205.600,41.045 205.231,41.530 204.780 C 42.014 204.328,42.616 204.086,42.867 204.241 C 43.140 204.410,43.214 204.347,43.052 204.083 C 42.732 203.567,45.146 202.806,47.113 202.802 C 49.331 202.798,53.200 205.051,53.200 206.347 C 53.200 206.596,53.399 206.800,53.643 206.800 C 53.886 206.800,53.982 207.070,53.855 207.400 C 53.729 207.730,53.771 208.000,53.949 208.000 C 54.126 208.000,54.486 208.675,54.747 209.500 C 55.268 211.142,54.843 213.473,54.055 213.300 C 53.805 213.245,53.600 213.549,53.600 213.976 C 53.600 214.403,53.417 214.866,53.193 215.004 C 52.970 215.142,52.874 215.396,52.980 215.567 C 53.086 215.739,52.819 216.259,52.386 216.723 C 51.954 217.187,51.600 217.754,51.600 217.983 C 51.600 218.212,51.423 218.400,51.208 218.400 C 50.992 218.400,50.700 218.861,50.558 219.424 C 50.395 220.073,50.100 220.370,49.751 220.236 C 49.433 220.115,49.200 220.281,49.200 220.628 C 49.200 221.229,46.234 224.400,45.672 224.400 C 45.510 224.400,45.112 224.769,44.788 225.219 C 44.162 226.092,42.232 227.200,41.339 227.200 C 41.042 227.200,40.800 227.367,40.800 227.571 C 40.800 228.039,38.506 229.200,37.581 229.200 C 37.199 229.200,36.792 229.445,36.677 229.743 C 36.479 230.259,34.619 230.739,31.657 231.037 C 30.919 231.112,30.090 231.360,29.815 231.588 C 29.540 231.816,28.704 231.909,27.957 231.794 C 26.925 231.635,26.791 231.673,27.400 231.954 C 27.977 232.221,27.394 232.327,25.307 232.334 C 22.184 232.345,21.600 232.520,21.600 233.447 C 21.600 233.777,21.748 233.956,21.928 233.844 C 22.109 233.733,22.575 234.527,22.964 235.609 C 23.353 236.691,23.872 237.536,24.118 237.488 C 24.363 237.440,24.578 237.580,24.596 237.800 C 24.663 238.628,25.655 240.013,26.020 239.788 C 26.229 239.658,26.400 239.760,26.400 240.013 C 26.400 240.631,27.836 242.430,28.110 242.156 C 28.229 242.037,28.446 242.313,28.590 242.770 C 28.735 243.226,29.020 243.600,29.224 243.600 C 29.427 243.600,30.075 244.140,30.663 244.800 C 31.251 245.460,31.812 245.922,31.908 245.825 C 32.005 245.728,32.532 246.133,33.081 246.725 C 33.629 247.316,34.105 247.721,34.139 247.625 C 34.172 247.529,34.650 247.735,35.200 248.082 C 35.750 248.429,36.873 248.948,37.696 249.236 C 38.744 249.601,39.043 249.864,38.696 250.114 C 38.369 250.348,38.507 250.402,39.100 250.272 C 39.594 250.164,40.091 250.224,40.203 250.405 C 41.004 251.701,53.928 252.081,58.884 250.954 C 60.381 250.613,61.505 250.169,61.380 249.967 C 61.255 249.765,61.603 249.600,62.153 249.600 C 62.703 249.600,63.266 249.417,63.404 249.193 C 63.542 248.970,63.789 248.869,63.952 248.970 C 64.115 249.071,64.868 248.624,65.624 247.978 C 66.938 246.855,67.393 246.634,68.130 246.763 C 68.311 246.794,68.358 246.655,68.233 246.454 C 67.990 246.060,69.982 244.557,70.530 244.721 C 70.711 244.775,70.753 244.648,70.623 244.438 C 70.493 244.227,70.551 243.954,70.752 243.830 C 70.952 243.706,71.202 243.829,71.307 244.102 C 71.412 244.376,71.566 244.780,71.649 244.999 C 71.783 245.354,75.049 248.583,76.892 250.184 C 77.273 250.514,78.413 250.993,79.426 251.248 C 80.689 251.566,81.099 251.818,80.733 252.050 C 80.328 252.307,80.320 252.401,80.700 252.444 C 80.975 252.475,81.380 252.545,81.600 252.600 C 81.820 252.655,82.461 252.722,83.024 252.750 C 83.587 252.778,83.966 252.935,83.866 253.100 C 83.555 253.616,88.033 253.628,92.000 253.122 C 94.090 252.855,95.935 252.674,96.100 252.718 C 96.265 252.763,96.400 252.553,96.400 252.251 C 96.400 251.811,98.465 251.182,100.000 251.155 C 100.110 251.153,100.634 250.757,101.165 250.276 C 101.695 249.794,101.999 249.625,101.841 249.900 C 101.406 250.655,101.900 250.500,102.800 249.600 C 103.240 249.160,103.954 248.800,104.386 248.800 C 105.037 248.800,106.000 247.769,106.000 247.072 C 106.000 246.972,105.190 246.769,104.200 246.621 C 103.110 246.458,102.400 246.142,102.400 245.822 C 102.400 245.531,102.027 245.196,101.570 245.076 C 101.114 244.957,100.643 244.486,100.524 244.030 C 100.404 243.573,100.139 243.200,99.934 243.200 C 99.729 243.200,99.214 242.435,98.789 241.500 C 98.365 240.565,98.007 239.980,97.993 240.200 C 97.968 240.603,96.701 238.070,96.635 237.485 C 96.616 237.312,96.420 237.042,96.200 236.885 C 95.679 236.514,94.400 233.743,94.400 232.986 C 94.400 232.664,94.234 232.400,94.031 232.400 C 93.828 232.400,93.445 231.725,93.179 230.900 C 92.913 230.075,92.541 229.203,92.351 228.963 C 92.162 228.723,92.125 228.408,92.270 228.263 C 92.415 228.118,92.325 228.000,92.071 228.000 C 91.817 228.000,91.494 227.276,91.352 226.391 C 91.211 225.506,90.939 224.686,90.747 224.568 C 90.556 224.449,90.400 224.003,90.400 223.576 C 90.400 223.149,90.220 222.800,90.000 222.800 C 89.780 222.800,89.597 222.485,89.594 222.100 C 89.591 221.715,89.306 220.590,88.962 219.600 C 88.617 218.611,88.312 217.498,88.285 217.128 C 88.257 216.758,88.111 216.531,87.961 216.624 C 87.571 216.865,87.135 214.236,87.435 213.454 C 87.573 213.094,87.838 212.800,88.025 212.800 C 88.211 212.800,88.482 212.168,88.627 211.396 C 88.772 210.623,89.050 209.893,89.245 209.772 C 89.440 209.651,89.600 209.103,89.600 208.553 C 89.600 208.003,89.765 207.655,89.966 207.779 C 90.168 207.904,90.723 206.834,91.199 205.403 C 91.675 203.971,92.202 202.800,92.369 202.800 C 92.537 202.800,92.887 202.088,93.147 201.218 C 93.408 200.348,93.842 199.396,94.111 199.102 C 94.883 198.260,95.600 196.866,95.600 196.205 C 95.600 195.872,95.791 195.600,96.024 195.600 C 96.257 195.600,96.348 195.439,96.226 195.242 C 96.104 195.045,96.257 194.787,96.565 194.669 C 96.873 194.551,97.243 193.914,97.388 193.255 C 97.533 192.595,97.920 191.832,98.249 191.559 C 98.577 191.287,99.097 190.464,99.403 189.732 C 99.727 188.956,100.246 188.400,100.646 188.400 C 101.024 188.400,101.220 188.286,101.081 188.147 C 100.672 187.738,101.599 186.352,102.082 186.651 C 102.355 186.820,102.410 186.740,102.225 186.441 C 102.051 186.159,102.276 185.655,102.763 185.232 C 103.223 184.833,103.600 184.382,103.600 184.230 C 103.600 183.719,106.129 180.800,106.571 180.800 C 106.811 180.800,107.247 180.416,107.541 179.946 C 108.282 178.760,107.759 178.518,103.724 178.182 C 101.896 178.030,100.400 177.747,100.400 177.553 C 100.400 177.087,81.713 177.094,81.424 177.561 C 81.302 177.759,80.076 178.052,78.701 178.211 C 77.325 178.370,75.233 178.928,74.050 179.450 C 72.868 179.973,71.662 180.400,71.370 180.400 C 71.078 180.400,70.656 180.715,70.432 181.100 C 70.156 181.575,70.020 181.623,70.012 181.251 C 70.003 180.819,69.878 180.804,69.424 181.180 C 69.107 181.443,68.958 181.947,69.093 182.299 C 69.279 182.784,69.169 182.874,68.637 182.669 C 68.251 182.521,67.859 182.400,67.767 182.400 C 67.675 182.400,67.600 182.130,67.600 181.800 C 67.600 181.470,67.390 181.200,67.134 181.200 C 66.388 181.200,63.600 179.877,63.600 179.523 C 63.600 179.345,63.161 179.200,62.624 179.200 C 62.087 179.200,61.536 179.020,61.400 178.800 C 61.264 178.580,60.726 178.400,60.205 178.400 C 59.684 178.400,58.988 178.131,58.659 177.802 C 58.330 177.473,57.642 177.193,57.131 177.179 C 56.619 177.165,53.860 177.092,51.000 177.016 C 48.140 176.940,45.316 177.022,44.725 177.198 M48.512 252.295 C 49.564 252.377,51.184 252.376,52.112 252.292 C 53.040 252.208,52.180 252.141,50.200 252.142 C 48.220 252.143,47.460 252.212,48.512 252.295 " stroke="none" fill="url(#skyGradient)" fill-rule="evenodd"></path>
 <defs>
            <linearGradient id="skyGradient" x1="100%" y1="100%">
              <stop offset="0%" stop-color="lightblue" stop-opacity=".5">
                <animate attributeName="stop-color" values="lightblue;blue;red;red;black;red;red;purple;lightblue" dur="14s" repeatCount="indefinite" />
              </stop>
              <stop offset="100%" stop-color="lightblue" stop-opacity=".5">
                <animate attributeName="stop-color" values="lightblue;orange;purple;purple;black;purple;purple;blue;lightblue" dur="14s" repeatCount="indefinite" />
                <animate attributeName="offset" values=".95;.80;.60;.40;.20;0;.20;.40;.60;.80;.95" dur="14s" repeatCount="indefinite" />
              </stop>
            </linearGradient>
    </defs></g></svg>